<?xml version="1.0" encoding="UTF-8"?>
<svg id="Layer_1" data-name="Layer 1" xmlns="http://www.w3.org/2000/svg" viewBox="0 0 281.45 249.7">
  <defs>
    <style>
      .cls-1 {
        stroke-width: 0px;
      }
    </style>
  </defs>
  <path class="cls-1" d="m280.93,75.07c-3.72-2.5-21.26-13.46-52.57-20.58-20.77-4.72-50.54-8.25-88.46-4.59-12.29,18.98-16.61,41.11-24.21,63.34-4.23,12.38-9.18,24.6-13.62,36.98,2.13.8,4.64.61,6.71-.84,5.41-3.79,10.65-7.76,15.98-11.79,31.75-24.03,64.58-48.87,153.03-52.11.51-.02.95-.36,1.1-.84l2.5-8.22c.15-.5-.04-1.04-.47-1.33Z"/>
  <path class="cls-1" d="m131.28,12.7C125.54,4.04,112.04,0,88.78,0,48.92,0,4.97,20.61,3.12,21.49c-2.33,1.1-3.57,3.69-2.97,6.19l51.97,217.83c.74,3.1,3.99,4.94,7.08,3.89,2.69-.92,4.13-3.87,3.47-6.64-3.7-15.52-21.93-91.94-28.04-117.51-1.13-4.72,1.73-9.49,6.43-10.71,14.47-3.76,27.63-5.67,39.22-5.67h.29c6.7-.36,13.3,1.5,17.25,2.94,2,.73,4.19-.41,4.77-2.46,1.48-5.22,3.28-10.33,5.5-15.26,4.36-9.68,7.87-19.71,10.94-29.87,2.48-8.22,18.27-42.38,12.23-51.5Zm-63.24,62.21c-8.56,1.09-16.38-4.96-17.47-13.51-1.09-8.56,12.23-27.5,12.23-27.5,0,0,17.66,14.99,18.75,23.54,1.09,8.56-4.96,16.38-13.51,17.47Z"/>
</svg>