<?xml version="1.0" encoding="UTF-8"?>
<svg id="Layer_2" data-name="Layer 2" xmlns="http://www.w3.org/2000/svg" viewBox="0 0 288 119.83">
  <g id="Artwork">
    <g id="Blue">
      <path d="M76.07,107.67c1.56-.13,2.86-.85,4-1.9.45-.42.86-.88,1.26-1.35.28-.34.57-.71.88-1.02.39-.4.89-.8,1.33-1.16.82-.68,1.66-1.34,2.5-2,2-1.57,4.02-3.1,6.06-4.61.25-.18.5-.37.75-.55.24-.17.61-.44,1.06-.78,1.25-.91,3.16-2.27,4.82-3.28-.41.06-.82.11-1.23.15-.7.07-1.4.1-2.09.1h-.11l-.75-.04c-.43.29-.85.59-1.27.9-.97.72-1.94,1.44-2.91,2.16-.6.44-1.19.88-1.79,1.33-1.9,1.41-3.81,2.82-5.72,4.22-1.14.84-2.34,1.6-3.57,2.31-.93.54-1.88,1.05-2.81,1.59-.34.2-.7.37-1.07.52-.24.1-.65.2-.79.43-.29.48.12.61.03,1.03-.17.81.52,2.02,1.41,1.95ZM93.91,92.98c.48-.35.96-.69,1.44-1.02-.62.43-1.2.84-1.7,1.21.09-.06.17-.13.26-.19ZM75.69,105.94c.06-.27.06-.46,0-.67.45-.18.86-.34,1.32-.62.93-.54,1.88-1.05,2.8-1.59,1.26-.73,2.49-1.51,3.66-2.37,1.6-1.18,3.2-2.36,4.8-3.54-.98.74-1.94,1.49-2.91,2.25-.85.66-1.69,1.33-2.52,2.02-.46.38-.99.8-1.41,1.23-.74.75-1.3,1.6-2.1,2.34-.96.89-2.04,1.51-3.34,1.63-.16-.06-.36-.47-.32-.68Z"/>
      <path d="M106.32,36.62c.3,1.97.65,3.96.77,5.95.03.48.77,2.35.54,2.7-.34.31-1.18-.25-1.63.12-.49.39.06,1.08.28,1.46.26.43.53.89.73,1.36.4.95.76,1.93,1.12,2.9.39,1.08.87,2.34,1.1,3.45.23,1.06.21,1.96.08,3.02-.15,1.26-.32,2.4-.32,3.68,0,.95-.02,2.05-.16,3.12,0,0,.01.01.02.02.15.17.3.34.44.51.15.18.3.37.44.56.19-.93.27-1.9.3-2.83-.24-.2-.41-.45-.51-.72-.14-.38-.14-.79.02-1.16.11-.26.3-.51.58-.7.16-1.92.59-3.74.17-5.72-.25-1.17-.73-2.47-1.14-3.6-.36-.98-.73-1.98-1.13-2.95-.19-.45-.44-.9-.69-1.32-.01-.02-.02-.04-.03-.06.4,0,.78-.09,1.08-.36.56-.5.38-1.45.21-2.09-.09-.36-.39-1.16-.41-1.46-.09-1.38-.27-2.74-.48-4.1,1.14,2.78,2.28,5.56,3.39,8.35.68,1.71,1.4,3.4,2,5.14.72,2.07,1.25,4.16,1.69,6.3.1.49.19.97.28,1.46h.88c-.09-.54-.2-1.09-.31-1.63-.45-2.18-.99-4.31-1.72-6.41-.61-1.75-1.32-3.46-2.01-5.18-1.27-3.17-2.56-6.33-3.86-9.49v.02c.61,1.06,1.43,1.56,1.95,2.76.32,1.26,1.75,3.57,3.19,3.56.14,0,.23,0,.3.11.19.33.23.57.5.89.67.79,1.23,1.64,1.98,2.38.51.72.62,1.83,1.02,2.64,1.1,2.19,2.99,3.94,5.6,3.6,2.17-.28,3.55-3.88,3.88-5.77.15-.83.41-1.64.61-2.46.28-1.16.42-2.28.45-3.47.04-2.16.13-4.35.37-6.5.23-2.04.29-4.07.44-6.12.07-1-.19-1.91-.16-2.86.03-1.04.02-2.48-.29-3.49-.03-.14-.08-.28-.13-.43.97,1.16,1.96,2.36,2.82,3.57.92,1.29,1.28,3.49,1.56,5.04.14.8.36,2.26.8,2.94.64.99,1.1,2.32,1.64,3.39.23.47.52,1.01.87,1.41.35.41.83.83,1.32,1.1-.22,2.8-.44,5.65-.96,8.41-.49,2.63-1.28,5.15-2.13,7.68-.52,1.56-1.01,3.14-1.45,4.73.23.41.3.95.16,1.58-.14.64-.21,1.47-.27,2.27.67-2.8,1.46-5.58,2.38-8.3.86-2.57,1.66-5.13,2.16-7.8.72-3.86.91-7.48,1.17-11.17.36-5.09.67-10.19.92-15.28.1-2.02.2-4.05.26-6.07.02-.67.04-1.34.04-2.01,0-.35.01-.77-.03-1.12-.07-.61.02-1.58.06-2.2.08-1.21.18-2.41.29-3.61.08-.92.17-1.85.27-2.77.22.93.44,1.94.74,2.82.16.47.28,1.12.38,1.61.17.78.33,1.55.49,2.33.38,1.8,1.27,4.31,2.11,5.94.16.31.32,1.52.37,1.89.18,1.2.32,2.41.47,3.61.15,1.22.29,2.44.44,3.65.08.64.17,1.59.35,2.2.02.11-.12.81-.13.95-.11.86-.08,1.71.05,2.57.35,2.39.61,3.83,2.88,5,1.87.96,3.33.23,4.92-.8.9-.59,2.25-1.05,3.03-1.7,1.1-.92,1.19-3.7,1.47-5.09.23-1.17.55-2.37.85-3.53.37-1.42.78-2.95,1.32-4.31.4-1.01.87-1.98,1.36-2.95.28-.55.7-1.26.92-1.83.11-.3.3-1.23.52-1.56.73.28,1.32-.16,1.66-.85.13-.26.22-.53.31-.81.04-.12.1-.35.14-.44.34-.4.8-1.43,1.04-1.94.34-.73.67-1.46,1-2.2.37-.82.99-1.04,1.02-2.05,0-.12.01-.27.02-.46,0,1.31,0,2.62-.02,3.93-.02,1.2-.15,2.43-.3,3.62-.19,1.53-.43,3.06-.69,4.58-.48,2.79-1.03,5.66-1.74,8.4-.29,1.14-.57,2.33-.99,3.44-.57,1.5-1.19,2.99-1.75,4.5-1.48,3.92-3.01,7.74-4.8,11.53-.04.09-.08.18-.12.27-.75,1.66-1.42,3.93-1.55,5.78-.21.13-.41.27-.62.4-1.78,1.17-3.51,2.64-5.16,3.99-1.7,1.39-3.47,2.87-5.32,4.07-1.02.66-2.05,1.31-3.09,1.94l.59.65c1-.61,1.99-1.23,2.97-1.87.43-.28.85-.57,1.28-.88.42.06.85.1,1.26.14,1.74.17,3.5.27,5.26.29.39-.63,1.21-.85,2.04-.85l5.16.07c.96-.04,1.92-.07,2.88-.07.89,0,1.49.29,1.84.71.33.02.66.04,1,.06,2.19.15,4.35.44,6.53.75.83.12,1.66.25,2.5.38.08-.28.17-.56.27-.83-.88-.14-1.77-.28-2.65-.41-2.2-.31-4.38-.61-6.59-.76-2.71-.18-5.4-.15-8.11,0-3.32.18-6.73.13-10.05-.2l-.34-.03c1.06-.81,2.09-1.67,3.11-2.5,1.63-1.33,3.33-2.78,5.09-3.94,1.8-1.18,3.66-2.29,5.5-3.41.88-.54,1.77-1.08,2.64-1.63.58-.37,1.21-.76,1.76-1.19,1.07-.84,2.13-1.76,3.17-2.67,1.2.47,3.73.09,4.85-.13.63-.13,1.27-.27,1.9-.41,2.36-.53,4.69-1.14,7.04-1.71,1.38-.33,2.78-.61,4.17-.87,1.37-.25,2.78-.5,4.17-.65,1.34-.14,2.96-.03,4.31.06.68.05,1.35.1,2.03.16.34.03.73.08,1.07.08.31,0,.72.06,1.03.09l.52.05c-.8.07-1.6.17-2.39.3h-.05s-.05.03-.05.03c-1.4.56-2.67,1.42-3.99,2.14-1.86,1.02-3.69,1.74-5.74,2.27-1.65.36-3.43,1.87-4.61,3.06-.83.83-2.39,2.58-2.76,3.7-.37,1.1-.07,2.27.51,3.23.16-.07.33-.14.49-.21.17-.07.34-.13.51-.19-.53-.77-.8-1.65-.51-2.5.31-.92,1.83-2.61,2.51-3.3,1.01-1.02,2.68-2.46,4.1-2.78,2.15-.55,4.07-1.3,6-2.37,1.26-.69,2.5-1.52,3.83-2.07,1.66-.29,3.36-.38,5.03-.44.6-.02,1.21-.03,1.8-.07.44-.03,1.18-.06,1.19-.67,0-.53-.6-.67-1-.78-.5-.13-1.02-.24-1.52-.36-1.27-.3-2.66-.68-3.81-1.3-1.08-.57-4.31-2.33-3.54-4.01.55-1.21,2.08-3.15,3.03-4.11,1.02-1.04,3.31-2.07,4.62-2.78.68-.35,1.47-.61,2.2-.86.29-.1.6-.21.89-.33.11-.05.23-.11.33-.18.32-.25.33-.72-.03-.94-.93-.57-1.81-.98-2.44-1.94-.38-.59.17-1.45.49-1.94.7-1.05,1.54-1.98,2.21-3.06.34-.55.66-1.11.98-1.67.17-.3.39-.68.63-.93.62-.64.19-1.32,1.07-1.82,1.05-.6,1.97-1.44,2.71-2.39.23-.29.97-1.29.97-1.68,0-.48-.46-.67-.87-.51-.16.06-.32.16-.47.25-.45.27-.9.58-1.34.87-.92.6-2.16,1.42-3.19,1.76h-.03s-.03.02-.03.02c-.75.34-1.91.79-2.75.64-.36-.07-.1-1.09-.8-1.26-.48-.12-2.03.84-2.47,1.07-1.01.55-2.12,1.16-3.19,1.57-.88.34-1.72.73-2.58,1.13-.37.17-1.14.55-1.54.6-1.02.07-1.62-.77-2-1.6-.19-.42-.19-.86-.13-1.31.07-.47.27-1.18-.37-1.36-.61-.17-1.01.35-1.32.78-.41.55-.78,1.06-1.28,1.54-.57.56-1.22.99-1.86,1.47-.79.59-1.43,1.19-2.02,1.98-.45.61-1.01,1.05-1.63,1.48-.85.59-1.7,1.14-2.52,1.78-1.28,1-4.6,3.16-6.22,2.73-1.19-.32-1.82-2.01-2.19-3.04-.54-1.52-.28-3.1-.36-4.68-.05-1-.19-2.08-.34-3.07-.08-.56-.18-1.14-.32-1.69-.11-.42-.32-1.06-.84-1.06-.18-.21-.41-.88-.48-1.12-.08-.38-.12-.75-.18-1.14-.08-.54-.2-1.06-.33-1.59-.3-1.15-.52-2.29-.75-3.46-.11-.55-.24-1.67-1.02-1.61-.71.06-.9,1.54-1,2.06-.19,1.02-.32,2.12-.34,3.15,0,.25-.06.36-.21.55-.3.38-.51.64-.71,1.09-.33.73-.65,1.46-.99,2.18-.18.38-.64,1.43-.9,1.72-.23.27-.38,1.01-.56,1.39-.09.19-.18.48-.42.35-.75-.39-1.25.43-1.47,1.01-.16.41-.23.8-.36,1.2-.19.52-.61,1.2-.87,1.71-.51.99-.99,2-1.4,3.04-.55,1.4-.97,2.97-1.35,4.43-.31,1.18-.63,2.4-.87,3.59-.19.95-.42,3.9-1.11,4.49-.31.26-.91.54-1.28.73-.55.28-1.14.56-1.65.9-1.24.81-2.38,1.51-3.85.75-1.91-.98-2.02-2.19-2.31-4.21-.12-.78-.15-1.55-.04-2.34.06-.4.21-.95.09-1.34-.16-.54-.24-1.46-.31-2.03-.15-1.22-.29-2.43-.44-3.65-.15-1.22-.29-2.43-.47-3.64-.08-.54-.24-1.74-.48-2.21-.8-1.55-1.66-3.96-2.01-5.68-.16-.78-.33-1.56-.5-2.34-.12-.54-.24-1.21-.42-1.73-.35-1.01-.59-2.22-.84-3.27-.14-.57-.27-1.13-.42-1.7-.1-.39-.21-1.13-.76-1.12-.65.02-.82.78-.92,1.29-.12.57-.19,1.15-.36,1.7-.33,1.14-.99,2.07-1.26,3.28-.28,1.24-.27,1.69-.92,2.83-.1.1-.27.25-.38.15-.3-.25-.45-.75-1-.61-.39.1-.53.59-.64.93-.15.47-.28.96-.41,1.44-.36,1.32-.72,2.64-1.2,3.93-.3.81-1.51,4.87-2.33,5.08-.97.25-2.08-.44-2.83-.99-.42-.31-1.12-1.06-1.65-.62-.59.47.21,1.6.48,2.07.3.53.81,1.39.94,1.97v.02s.01.02.01.02c.28.88.27,2.25.25,3.17-.02.94.23,1.87.17,2.82-.14,2.03-.2,4.05-.43,6.07-.25,2.18-.34,4.41-.38,6.6-.02,1.11-.16,2.16-.42,3.24-.2.84-.47,1.67-.62,2.52-.2,1.13-.64,2.34-1.23,3.32-.35.57-1.03,1.5-1.75,1.59-2.15.28-3.63-1.25-4.52-3.03-.47-.93-.47-1.91-1.14-2.82l-.03-.04-.03-.03c-.73-.7-1.29-1.57-1.94-2.34-.18-.21-.26-.49-.39-.73-.27-.47-.69-.64-1.22-.64-.84,0-1.99-2.08-2.17-2.8v-.04s-.03-.04-.03-.04c-.28-.66-.62-1.18-1.09-1.72-.34-.39-.67-.73-.92-1.19-.45-.79-.94-1.56-1.47-2.3-.18-.25-.36-.5-.56-.73-.21-.24-.46-.52-.83-.4-.68.23-.29,1.33-.17,1.81.15.57.34,1.2.43,1.78ZM202.48,26.52c-1.46.79-3.73,1.81-4.88,2.97-1.04,1.05-2.64,3.09-3.24,4.41-1.11,2.46,2.28,4.46,4.01,5.38.34.18.69.34,1.06.48l-.53-.05c-.35-.03-.78-.1-1.12-.1-.31,0-.69-.05-1-.08-.68-.06-1.36-.11-2.04-.16-1.4-.09-3.07-.21-4.46-.06-1.41.15-2.84.4-4.23.66-1.41.26-2.83.54-4.22.88-2.34.57-4.67,1.18-7.02,1.71-.63.14-1.26.27-1.89.4-.76.16-2.75.46-3.89.29l.37-.32c1.44-1.25,2.93-2.59,4.43-3.76,1.33-1.03,2.63-2.15,3.93-3.23,1.19-.99,2.4-2.05,3.64-2.97.57-.43,1.23-.83,1.83-1.2.98-.62,1.96-1.22,2.93-1.83.94-.59,1.88-1.17,2.81-1.77.24-.15.64-.4,1-.65,1.32.01,3.05-.06,4.29-.4.07-.02.15-.04.22-.06,1.52-.49,3.78-1.21,5.35-1.3,1.05-.06,2.29.05,3.34.12.23.02.46.03.69.05-.47.17-.94.36-1.39.59ZM207.33,14.08l.59-.39c-.09.15-.16.32-.21.5-.05.17-.11.56-.24.69-.31.32-.56.74-.78,1.12-.32.55-.63,1.1-.97,1.65-.66,1.06-1.5,1.99-2.19,3.03-.61.91-1.17,2.06-.5,3.1.37.58.8.98,1.27,1.32-.35-.03-.71-.05-1.06-.08-1.09-.08-2.36-.19-3.45-.12-1.66.1-3.96.82-5.57,1.34-.06.02-.12.04-.18.05-.86.24-2,.33-3.04.36.24-.2.5-.4.69-.55.84-.68,1.68-1.36,2.52-2.03,2.02-1.61,4.05-3.22,6.07-4.83.84-.67,1.73-1.34,2.54-2.04.49-.42,1.13-.84,1.66-1.21.94-.65,1.89-1.29,2.84-1.92ZM190.6,14.2c.04.16.1.33.17.49.57,1.26,1.55,2.34,3.06,2.22h.02c.56-.07,1.35-.45,1.87-.69.83-.38,1.66-.77,2.51-1.1,1.05-.4,2.13-.99,3.13-1.53.46-.25.91-.5,1.37-.73.09-.05.22-.12.35-.18.02.09.04.18.08.27.17.44.49.76.97.84.89.16,1.91-.12,2.79-.47-.97.64-1.93,1.29-2.88,1.95-.56.39-1.24.83-1.76,1.28-.8.69-1.68,1.36-2.51,2.02-2.02,1.61-4.05,3.22-6.08,4.83-.85.68-1.69,1.35-2.53,2.03-.36.3-.93.72-1.24,1.06-.24.26-1.08.76-1.4.97-.93.6-1.86,1.18-2.8,1.76-.98.61-1.96,1.22-2.93,1.83l-.2.12c.23-1.43.71-3.23,1.46-4.24.82-1.12,1.6-2.29,2.35-3.46.56-.86,1.1-1.73,1.61-2.62.36-.62.78-1.34,1.03-2.01.56-1.52,1.07-3.09,1.57-4.64ZM167.84,13.33c.15-1.22.29-2.48.31-3.71.02-1.32.03-2.65.02-3.97.05.2.1.39.15.59.25.94.32,1.76.5,2.69v.02s0,.02,0,.02c.16.58.54,1.72,1.23,1.89.33.81.67,4.1.71,4.83.1,1.77-.2,3.25.42,4.98.51,1.44,1.28,3.27,2.91,3.71,2.07.55,5.54-1.66,7.14-2.92.8-.63,1.64-1.16,2.47-1.74.72-.5,1.36-1.01,1.88-1.72,1.11-1.51,2.49-2.08,3.76-3.32.09-.09.17-.17.26-.26-.45,1.39-.91,2.79-1.41,4.14-.23.62-.63,1.31-.96,1.88-.51.88-1.05,1.74-1.59,2.59-.74,1.15-1.51,2.31-2.32,3.41-.97,1.33-1.54,3.71-1.72,5.36-.25.17-.5.34-.73.51-1.24.93-2.47,2.01-3.67,3-1.29,1.07-2.58,2.18-3.91,3.21-1.52,1.18-3.01,2.53-4.46,3.78-1.4,1.21-2.84,2.52-4.3,3.66-.52.41-1.13.78-1.69,1.14-.87.55-1.75,1.09-2.63,1.62-1.32.81-2.66,1.61-3.97,2.43.22-1.62.79-3.46,1.41-4.84.04-.09.08-.17.12-.26,1.8-3.81,3.34-7.65,4.83-11.6.57-1.51,1.19-2.99,1.75-4.5.43-1.14.72-2.35,1.02-3.53.71-2.77,1.27-5.66,1.75-8.47.26-1.53.5-3.07.7-4.62ZM130.14,21.06c.9-.24,1.44-1.4,1.77-2.18.49-1.16.86-2.38,1.29-3.56.45-1.22.8-2.48,1.15-3.73.08-.28.25-1,.41-1.53.06.05.13.11.23.16.6.33,1.19.03,1.63-.4l.05-.05.04-.06c.76-1.3.77-1.82,1.08-3.2.17-.78.54-1.47.86-2.19-.06.66-.13,1.32-.19,1.98-.11,1.21-.22,2.42-.29,3.64-.04.69-.14,1.68-.06,2.36.04.31.03.69.02,1.01,0,.66-.02,1.32-.04,1.99-.06,2.02-.16,4.04-.26,6.05-.25,5.09-.56,10.18-.92,15.26-.04.56-.08,1.12-.12,1.69-.28-.21-.54-.46-.75-.69-.29-.34-.55-.83-.74-1.23-.55-1.12-1.02-2.44-1.68-3.48-.34-.52-.56-2-.67-2.63-.31-1.72-.69-3.96-1.71-5.39-.97-1.37-2.1-2.72-3.2-4.03.67.27,1.39.4,2.1.21Z"/>
      <path d="M176.73,70.72c.09,0,.17,0,.26,0-.16-.18-.31-.37-.46-.56-.16-.21-.32-.42-.47-.63-.32-.08-.64-.18-.85-.24-.93-.27-1.85-.57-2.78-.85-1.91-.58-4.2-1.28-6.18-1.44-1.11-.09-2.27.34-3.26.82-.41.2-.84.44-1.27.68v.59s-.02.62-.02.62c1.41-.7,2.91-1.77,4.47-1.65,1.89.15,4.14.85,5.96,1.4.93.28,1.86.58,2.79.85.5.15,1.3.4,1.81.41Z"/>
      <path d="M135.08,74c-1.02-.19-2.04-.35-3.04-.5-.11-.02-.22-.03-.33-.05-.03.26-.07.55-.11.86.1.02.21.03.31.05,1.04.16,2.1.33,3.16.52v-.88Z"/>
      <path d="M133.68,84.93c.32-.39.76-.65,1.25-.83,0-.04,0-.07,0-.1v-.46s.01-.55.01-.55c-.63.17-1.19.44-1.66.83.04.21.06.43.07.66.01.3,0,.6-.01.91.09-.16.2-.32.33-.47Z"/>
      <path d="M113.47,80.23c0-.39,0-.74,0-1.03-.33.21-.65.42-.95.64-.27.2-.55.4-.83.59-.2.63-.44,1.25-.71,1.85.81.15,1.64.34,2.48.54,0-.3,0-.6,0-.89-.62-.15-1.23-.29-1.84-.41.48-.33.95-.66,1.41-.99.14-.1.29-.21.44-.31Z"/>
      <path d="M194.4,66.71c-.15.17-.14.27-.22.42-.02,0-.05.02-.07.02-1.39.29-2.77.59-4.15.88-.62.13-1.27.27-1.92.39.21.13.42.27.63.41.21.14.43.28.64.42.29-.06.58-.12.86-.18,1.39-.29,2.77-.59,4.16-.88.54-.11.66-.31.84-.72.05,0,.12,0,.15,0,.36.03.72.06,1.07.09-.24-.13-.45-.32-.62-.58-.1-.16-.18-.34-.24-.55-.04,0-.08,0-.12-.01-.37-.04-.76-.01-1.02.28Z"/>
      <path d="M122.07,85.67c.36.22,1.17.36,2.13.42-.86-.45-1.73-.87-2.57-1.26.03.33.13.65.45.84Z"/>
      <path d="M135.2,65.65c-1.33.77-2.66,1.52-4,2.26.03-.18.07-.35.1-.53-.28.32-.63.51-.99.58-.02.13-.05.27-.07.4l-.02.09c-1.59.87-3.11,1.81-4.54,2.91-.2.15-.4.32-.6.48l1.42-.02c1.33-1,2.75-1.86,4.22-2.66,1.5-.82,2.98-1.65,4.46-2.5v-1.01Z"/>
      <path d="M99.94,68.21c-.04.49-.08.95-.07,1.44.01.5-.14,1.18-.22,1.68-.11.66-.23,1.44-.13,2.11.28,2.07.43,5.25,0,7.32-.24,1.14-.02,2.32.17,3.45.08.49.17,1.04.18,1.59.17-.08.35-.16.52-.25.17-.09.34-.19.51-.29-.13-1.44-.64-2.92-.35-4.28.46-2.19.32-5.48.02-7.68-.16-1.14.39-2.51.37-3.67-.02-.81.19-1.72,0-2.49.33.49.65.98.98,1.47,1.36,2.05,2.07,4.31,2.75,6.63-.13-2.7-.96-5.82-2.89-7.68-.54-.52-1.09-.96-1.68-1.33-.23-.15-.47-.29-.7-.42.19.52.38,1.06.51,1.59.07.28.06.54.03.82Z"/>
      <path d="M190.46,63.52c-2.81-.46-5.63-1.02-8.43-1.53-.05,0-.1-.02-.15-.03,0,.31.05.61.13.9,2.76.5,5.55,1.05,8.32,1.5.86.14,1.75.38,2.59.61.85.23,1.7.47,2.55.73,0-.26.03-.56.08-.88-.8-.24-1.6-.47-2.4-.68-.87-.23-1.79-.48-2.67-.63Z"/>
      <path d="M107.16,90.53c-.81-.49-1.67-.99-2.57-1.36-.21.11-.43.22-.65.32-.25.12-.5.22-.75.33,1.22.3,2.4.99,3.42,1.62,1.08.66,2.31,1.08,3.53,1.41.99.27,2.03.46,3,.77.42.13.77.33,1.13.57.05.03.1.07.15.11.29.2.62.41.97.23.12-.06.19-.14.24-.23.13-.26.02-.61-.06-.88-.1-.33-.2-.66-.26-1-.09-.47-.19-1.22.27-1.54,0,0,0,0,0,0h-.58s-.08,0-.11,0c-.19,0-.39.02-.59.03-.15.45-.15.97-.08,1.46.03.21.08.42.13.63-.28-.16-.58-.29-.89-.39-2.15-.68-4.32-.86-6.31-2.08Z"/>
      <path d="M140.57,75.21l.02.9c.94.26,1.86.54,2.75.86.51.18,1.02.36,1.54.55-.41-.45-.83-.91-1.24-1.36,0,0,0,0-.01,0-.99-.35-2.02-.66-3.06-.94Z"/>
      <path d="M199.66,65.09c-.16.09-.29.21-.41.37-.14.2-.26.46-.36.81-.11.37-.27.67-.47.9-.2.23-.44.4-.7.5.66.04,1.32.06,1.98.08.56.01,1.14.02,1.7,0,.42-.02,1.15-.02,1.17-.62.03-.74-1.29-1.26-1.84-1.52-.3-.14-.69-.32-1.08-.52Z"/>
      <path d="M177.96,97.41l.04-.05c.32-.46-.22-1.14-.49-1.51-.05-.08-.11-.15-.16-.23-.33-.45-.67-.89-1.02-1.33-.05-.06-.09-.12-.14-.17-.47-.58-.94-1.16-1.41-1.74-.17-.21-.41-.49-.6-.73.14-.28.07-.57-.25-.78-.32-.22-.81-.72-1.1-1-.52-.49-1.03-.99-1.56-1.45-.39-.35-.6-.67-.84-1.12-.31-.57-.59-1-1.07-1.46-.12-.11-.57-.55-.47-.75.22-.43.41-1.05-.22-1.26-.42-.14-.81-.33-1.19-.56-2.09-1.26-3.27-2.89-4.99-4.5-.32-.3-.63-.55-.94-.78v.65s-.02.69-.02.69c.08.07.16.14.24.21.76.71,1.45,1.51,2.19,2.24.91.91,1.87,1.72,2.97,2.39.32.19.64.36.98.5-.33.74.18,1.42.71,1.92.85.81.99,1.78,1.94,2.62.52.46,1.03.95,1.53,1.43.27.25.62.61.95.89-.01.06-.02.13,0,.2.02.29.52.84.7,1.06.26.32.52.65.79.97l-.04-.03c-.98-.73-1.98-1.43-2.98-2.12-1.76-1.21-3.65-2.51-5.51-3.56-1.06-.6-2.03-1.3-3.01-2.03-.52-.39-1.04-.78-1.56-1.16l-.02,1.06c.36.26.71.53,1.07.79,1,.75,2.01,1.46,3.1,2.08,1.83,1.04,3.7,2.33,5.44,3.52.91.62,1.81,1.26,2.69,1.91-.17-.08-.33-.16-.5-.24-.59-.27-1.73-.82-2.36-.89-.31-.04-.59.06-.82.27-.06.05-.11.12-.16.18-1.84-.79-3.8-1.42-5.68-2.1-.7-.25-1.39-.56-2.09-.79-.37-.12-.73-.21-1.1-.21-.15.27-.35.49-.57.65-.08.05-.16.1-.24.14-.24.12-.51.18-.8.18-.17.35-.23.77-.22,1.21,0,.18.02.35.04.53-.37-.43-.76-.9-.92-1.07-.79-.89-1.78-1.97-2.79-2.57-.22-.13-.54-.48-.75-.66-.51-.43-1.06-.74-1.7-.96-1.42-.49-2.78-1.03-4.12-1.72-.96-.49-1.83-.96-2.84-1.34-1.28-.48-3.25-1.17-5.31-1.62v.55s.03.54.03.54c1.67.38,3.34.93,4.92,1.52.97.36,1.81.82,2.73,1.29,1.39.71,2.78,1.27,4.26,1.78.51.18.95.42,1.36.77.29.24.58.57.9.76.98.58,2.03,1.78,2.79,2.64.36.41.71.84,1.09,1.24.02.02.04.04.05.06.31.33.81.86,1.3.49.18-.14.24-.34.25-.54,0-.17-.03-.35-.06-.51-.06-.33-.12-.66-.14-1-.03-.48-.03-1.1.52-1.25.33-.09.7.01,1.01.12.69.23,1.38.53,2.07.78,1.69.61,3.44,1.18,5.1,1.86.22.09.44.18.65.27.35.15.68.07.95-.19.02-.02.04-.05.07-.08.05-.05.1-.12.14-.15.13.02.31.07.52.15.53.19,1.2.51,1.51.66.47.22.93.45,1.39.67.19.09.38.18.56.27.59.27,1.09.68,1.59,1.09.41.34,1.05.94,1.59.48l.05-.04Z"/>
      <path d="M133.37,98.1c.74.48,1.48,1.3,2.1,1.94.44.46,1.44,1.66,2.14,1.08.36-.3.19-.78.06-1.14-.16-.41-.34-.81-.52-1.2-.46-1.03-.91-2.08-1.24-3.16-.02-.08-.05-.16-.07-.24-.1-.37-.24-.74-.39-1.09-.2-.46-.43-.9-.67-1.33-.27-.48-.66-1.06-.87-1.56-.06-.14-.12-.29-.18-.44-.2,0-.4-.03-.6-.07-.23-.05-.45-.12-.64-.23.14.39.3.78.45,1.15.23.55.63,1.14.92,1.67.15.27.3.54.43.82.21.43.39.87.52,1.33,0,.02,0,.03.01.05.16.56.35,1.11.56,1.66-.38-.57-.77-1.14-1.16-1.71-.16-.24-.32-.47-.49-.71-.14-.21-.29-.41-.43-.62-.6-.86-1.22-1.72-1.85-2.55-.19-.24-.39-.51-.61-.79-.34.06-.69.08-1.04.09.35.41.68.86.96,1.22.51.67,1,1.34,1.48,2.03.26.37.52.74.78,1.11.05.07.1.14.15.22.47.68.94,1.37,1.41,2.07-.21-.18-.42-.34-.64-.48-.64-.42-1.52-.97-2.55-1.59-.7-.42-1.47-.87-2.29-1.33-2.15-1.21-4.62-2.47-6.96-3.37-.1,0-.2,0-.3-.01h-1.31s-1.97-.02-1.97-.02c2.4.53,5.49,1.93,8.29,3.41.84.44,1.65.89,2.42,1.33,1.75,1,3.22,1.91,4.09,2.47Z"/>
      <polygon points="47.86 104 47.86 119.46 53.53 119.46 53.53 117.62 49.62 117.62 49.62 104 47.86 104"/>
      <path d="M68.08,104l-3.48,15.46h1.78l.8-3.62h4.01l.78,3.62h1.84l-3.4-15.46h-2.33ZM67.41,114.29l1.76-8.45h.08l1.7,8.45h-3.54Z"/>
      <polygon points="92.72 116.01 92.66 116.01 88.29 104 86.18 104 86.18 119.46 87.81 119.46 87.81 107.47 87.86 107.47 92.29 119.46 94.34 119.46 94.34 104 92.72 104 92.72 116.01"/>
      <path d="M115.04,117.48c.91-1.32,1.37-3.23,1.37-5.73s-.45-4.44-1.36-5.76c-.91-1.32-2.18-1.99-3.83-1.99h-3.19v15.46h3.17c1.64,0,2.92-.66,3.84-1.98ZM109.79,105.73h1.42c.48,0,.93.12,1.35.37.42.25.79.62,1.09,1.11.3.5.55,1.12.72,1.88.18.76.26,1.64.26,2.66s-.09,1.88-.26,2.63c-.18.75-.42,1.37-.72,1.87-.31.5-.67.87-1.09,1.11-.42.25-.87.37-1.35.37h-1.42v-12.01Z"/>
      <path d="M131.43,106.02c.2-.21.41-.36.66-.46.24-.09.49-.14.73-.14.83,0,1.5.36,2,1.09l1.06-1.4c-.35-.5-.79-.87-1.32-1.11-.53-.25-1.12-.37-1.79-.37-.46,0-.91.09-1.35.26-.44.17-.84.44-1.18.81-.35.36-.62.82-.83,1.37-.21.55-.31,1.2-.31,1.94,0,.63.08,1.17.23,1.63.15.46.35.85.62,1.19.26.33.56.63.89.88.33.25.69.48,1.07.69.31.17.6.36.87.56.27.2.5.41.71.65.21.24.37.51.49.81.12.3.18.64.18,1.04,0,.83-.19,1.46-.57,1.9-.38.44-.86.65-1.45.65-.46,0-.91-.12-1.36-.37-.45-.25-.82-.59-1.13-1.03l-1.04,1.42c.38.54.88.97,1.52,1.3.63.33,1.3.49,2.01.49.52,0,1.01-.1,1.47-.31.46-.2.85-.49,1.18-.87.33-.38.6-.85.79-1.41.2-.56.29-1.19.29-1.89,0-.63-.09-1.18-.26-1.65-.18-.47-.41-.88-.69-1.23-.29-.35-.61-.65-.96-.91-.35-.25-.71-.48-1.08-.69-.29-.16-.55-.33-.8-.51-.25-.18-.47-.39-.66-.61-.19-.23-.34-.48-.45-.76-.11-.28-.17-.62-.17-1.01,0-.45.06-.84.18-1.16.12-.32.27-.59.47-.8Z"/>
      <path d="M150.95,107.3c.25-.57.58-1.02.97-1.35.39-.34.85-.5,1.39-.5.43,0,.83.11,1.21.34.38.23.71.57,1,1.04l1.1-1.33c-.38-.63-.86-1.09-1.45-1.4-.59-.31-1.23-.46-1.94-.46-.76,0-1.44.2-2.04.61-.61.41-1.12.97-1.55,1.69-.42.72-.75,1.58-.98,2.57-.23.99-.34,2.07-.34,3.23s.11,2.24.33,3.22c.22.98.54,1.84.96,2.56.42.73.93,1.3,1.55,1.7.61.41,1.3.61,2.07.61s1.45-.18,2-.56c.55-.37,1-.86,1.35-1.47l-1.06-1.29c-.22.42-.52.78-.89,1.07-.37.29-.8.44-1.28.44-.54,0-1-.17-1.4-.5-.4-.33-.73-.79-.99-1.36-.26-.57-.46-1.24-.59-2-.13-.76-.2-1.56-.2-2.42s.06-1.67.2-2.43c.13-.76.32-1.43.58-2Z"/>
      <path d="M171.07,104l-3.48,15.46h1.78l.8-3.62h4.01l.78,3.62h1.84l-3.4-15.46h-2.33ZM170.4,114.29l1.76-8.45h.08l1.7,8.45h-3.54Z"/>
      <path d="M196.39,108.35c0-.83-.11-1.52-.34-2.08-.23-.56-.52-1.01-.87-1.34-.35-.34-.75-.57-1.19-.71-.44-.14-.87-.21-1.29-.21h-3.51v15.46h1.76v-6.62h1.88c.47,0,.92-.09,1.34-.28.42-.19.8-.47,1.13-.84.33-.37.6-.84.79-1.41.2-.57.29-1.22.29-1.96ZM194.04,110.5c-.39.47-.9.71-1.52.71h-1.58v-5.52h1.58c.62,0,1.13.21,1.52.64.39.43.58,1.11.58,2.04s-.19,1.65-.58,2.13Z"/>
      <polygon points="215.08 105.75 215.08 104 209.25 104 209.25 119.46 215.27 119.46 215.27 117.69 210.95 117.69 210.95 112.25 214.8 112.25 214.8 110.62 210.95 110.62 210.95 105.75 215.08 105.75"/>
      <path d="M233.56,118.65c.33-.38.6-.85.79-1.41.2-.56.29-1.19.29-1.89,0-.63-.09-1.18-.26-1.65-.18-.47-.41-.88-.69-1.23-.29-.35-.61-.65-.96-.91-.35-.25-.71-.48-1.08-.69-.29-.16-.55-.33-.8-.51-.25-.18-.47-.39-.66-.61-.19-.23-.34-.48-.45-.76-.11-.28-.17-.62-.17-1.01,0-.45.06-.84.18-1.16.12-.32.27-.59.47-.8.2-.21.41-.36.66-.46.24-.09.49-.14.73-.14.83,0,1.5.36,2,1.09l1.06-1.4c-.35-.5-.79-.87-1.32-1.11-.53-.25-1.13-.37-1.79-.37-.46,0-.91.09-1.35.26-.44.17-.84.44-1.18.81-.34.36-.62.82-.83,1.37-.21.55-.31,1.2-.31,1.94,0,.63.07,1.17.22,1.63.15.46.36.85.62,1.19.26.33.56.63.89.88.33.25.69.48,1.07.69.31.17.6.36.87.56.27.2.5.41.71.65.21.24.37.51.49.81.12.3.18.64.18,1.04,0,.83-.19,1.46-.57,1.9-.38.44-.86.65-1.45.65-.46,0-.91-.12-1.36-.37-.45-.25-.82-.59-1.12-1.03l-1.04,1.42c.38.54.88.97,1.52,1.3.63.33,1.3.49,2.01.49.52,0,1.01-.1,1.47-.31.46-.2.85-.49,1.18-.87Z"/>
      <path d="M39.25,80.37c.02-.05.04-.1.04-.11,0,0,.04,0,.06,0h8.41c.08,0,.1,0,.14.11l2.81,7.76c.08.21.02.35-.01.42-.04.07-.1.11-.12.11-.45.05-.66.26-.65.64.01.55.57.55,1.12.54h.17c2.52-.03,4.8-.03,6.16-.03h.7c.84,0,1.98-.05,2.89-.08h.05c.63-.03,1.17-.05,1.45-.05.17,0,.63.02,1.21.03h.02c1.18.04,2.96.1,4.33.1.87,0,.97-.44.97-.63,0-.31-.27-.63-.68-.63-.45,0-1.21-.05-1.71-.13-.91-.15-1.06-.66-1.19-1.79-.18-1.76-.2-5.21-.2-8.02v-.53c0-.06.01-.07.01-.07,0,0,0,0,.03,0l3.22.09c.2,0,.33.03.46.18.19.25.6.89,1.11,1.69.65,1.03,1.46,2.31,2.26,3.45,2.13,3.15,3.42,4.79,4.95,5.63,1.02.58,2.07.79,4.02.79h3.41c.1,0,.5-.02,1.03-.05.62-.03,1.46-.08,1.69-.08.82,0,2.03.08,3.6.22.34.02.68.05,1.02.07,1.11.08,2.26.15,3.26.15,7.24,0,10.91-3.16,12.16-4.52,2.52-2.7,3.96-6.6,3.96-10.7,0-4.96-1.87-8.05-3.43-9.76h0c-3.97-4.39-10.09-4.39-14.56-4.39-1.26,0-2.68.03-3.82.06-.82.02-1.54.03-1.99.03s-1.08-.02-1.84-.03h-.02c-1.04-.03-2.23-.05-3.3-.05-.29,0-1.05,0-1.05.59,0,.29.22.63.84.63.57,0,1.12.05,1.35.12,1.06.33,1.31.66,1.38,1.83.04,1.2.04,2.23.04,7.99v6.67c0,3.45,0,6.43-.16,8.02-.12,1.06-.29,1.66-.88,1.8h-.02c-.52-.11-1.72-.4-3.53-2.38-2.07-2.27-4.23-5.18-7.22-9.2l-.17-.22c3.77-2.64,4.57-6.25,4.57-8.82,0-2.72-1.64-4.67-2.62-5.39-2.02-1.46-4.76-1.64-6.92-1.64-.55,0-1.62.02-2.67.04-1.12.02-2.28.05-2.9.05-.28,0-.77-.01-1.39-.03h-.02c-1.03-.03-2.31-.06-3.46-.06-.29,0-1.05,0-1.05.59,0,.29.22.63.84.63.58,0,1.12.05,1.35.12,1.06.33,1.31.66,1.38,1.83.04,1.2.04,2.23.04,7.99v6.67c0,3.45,0,6.43-.16,8.02-.12,1.06-.29,1.66-.88,1.8-.19.05-.34.08-.59.08-.26,0-.46-.03-.76-.08-.66-.14-1.58-.7-2.88-3.9-1.05-2.64-2.87-7.28-4.63-11.76l-.12-.31c-2.01-5.11-3.9-9.94-4.35-11.05-.36-.84-.58-1.34-1.27-1.34-.54,0-.87.61-1.27,1.66l-9.34,23.61c-.77,2.01-1.35,2.95-2.75,3.18-.17,0-.36.01-.54.02-.18.01-.36.02-.51.02-.38,0-.64.26-.64.63,0,.63.64.63.88.63,1.3,0,2.63-.06,3.43-.1.35-.02.61-.03.72-.03.56,0,1.26.03,1.95.07.67.03,1.43.07,2.04.07.2,0,.8,0,.8-.63,0-.42-.26-.63-.76-.63h-.53c-.99,0-1.19-.32-1.19-.83,0-.37.14-1.27.51-2.23l1.91-5.11ZM90.29,71.36c0-2.99,0-6.09.04-7.38,0-.38.09-.45.34-.56.19-.12,1.2-.23,2.07-.23,2.66,0,6.57.37,9.83,3.54,3.02,2.88,3.26,7.81,3.26,9.25,0,4.45-.94,7.38-2.97,9.21-1.97,1.79-4.18,2.52-7.64,2.52-2.65,0-4.05-.73-4.48-1.41-.27-.38-.34-2.01-.36-2.54-.04-.75-.08-3.61-.08-7.63v-4.76ZM65.23,63.62c0-.24.05-.27.15-.31.32-.08,1.11-.13,2.06-.13,2.4,0,5.21,1.7,5.21,6.48,0,2.48-.74,4.19-2.21,5.09-.66.41-1.43.65-2.29.72-.87.07-1.89.01-2.73-.17-.12-.07-.17-.12-.17-.44v-11.25ZM43.61,68.42l3.3,9.28-6.7.02,3.41-9.3Z"/>
      <path d="M142.53,88.55c-.74,0-1.32-.08-1.78-.25-.5-.19-.98-.8-1.07-3.88l-.39-14.95c.34.37.87.98,1.51,1.73,1.62,1.86,4.06,4.68,6.56,7.3,3.92,4.15,8.31,8.73,10.44,10.89.54.59,1.07.88,1.64.88.39,0,.8-.38.8-1.43l.41-23.83c.04-2,.28-2.62,1.13-2.89.41-.12.67-.12,1.03-.12.62,0,.84-.34.84-.63,0-.59-.68-.59-1.05-.59-1.19,0-2.17.04-2.83.07h-.02c-.3.01-.52.02-.64.02-.29,0-.75-.01-1.32-.03h-.03c-.92-.03-2.06-.06-3.2-.06-.42,0-1.13,0-1.13.59,0,.24.1.63.8.63.45,0,1.29,0,1.78.2.71.3,1.03.82,1.07,3.12l.36,16.37c-.44-.47-1.31-1.45-2.39-2.64l-.02-.02c-1.65-1.83-3.71-4.11-5.06-5.56-4.39-4.69-8.95-9.76-10.45-11.42l-.1-.11c-.24-.27-.4-.45-.46-.51l-.14-.15c-.59-.65-1.06-1.17-1.58-1.17s-.84.61-.84,1.52l-.32,22.41c-.04,3.23-.16,4.14-.92,4.36-.39.11-.97.17-1.56.17-.46,0-.8.27-.8.63,0,.64.68.64,1.05.64,1.29,0,2.51-.07,3.25-.11h.05c.27-.02.47-.03.56-.03.22,0,.57.02,1.02.04.83.04,2.1.1,3.62.1.26,0,1.05,0,1.05-.64,0-.29-.22-.63-.84-.63Z"/>
      <path d="M29.56,81.71c0-2.23,0-4,.04-5.33.04-1.49.41-2.12,1.35-2.31.5-.09.76-.13,1.05-.13.47,0,.76-.23.76-.59,0-.68-.73-.68-1.05-.68-.68,0-1.57.03-2.43.07h-.03c-.86.03-1.68.07-2.3.07-.52,0-1.29-.03-2.18-.05-1.18-.04-2.51-.08-3.71-.08-.35,0-1.09,0-1.09.68,0,.22.11.59.84.59.63,0,1.26.05,1.53.13,1.16.27,1.53.81,1.56,2.31.04,1.33.04,3.05.04,5.24v4.18c0,.79-.19,1.2-.64,1.43-.93.46-2.33.46-3.35.46-8.18,0-13.9-6.78-13.9-16.48,0-4.95,1.2-8.46,3.66-10.72,2.61-2.37,5.33-2.7,7.89-2.7,4.72,0,7.8,2.13,8.88,3.38,1.05,1.24,1.22,2.69,1.33,3.56.03.23.09.78.64.78.68,0,.68-.73.68-1.17,0-4.27.17-5.96.25-6.77.02-.24.04-.39.04-.52,0-.34-.09-.71-.79-.77-.99-.05-2.55-.35-3.17-.48-.9-.2-4.49-.72-7.24-.72-3.21,0-6.97.23-11.06,2.93-4.49,2.97-7.17,8.48-7.17,14.73,0,5.76,1.98,10.42,5.74,13.5,3.33,2.72,7.92,4.16,13.27,4.16,1.91,0,6.7-.2,9.92-2.04.6-.38.64-.58.64-1.8v-4.89Z"/>
      <path d="M116.56,89.7c.29,0,.53-.02.71-.02.91,0,1.98.03,3.35.06l1.29.03c1.99.09,4.41.13,7.4.13,1.53,0,2.05,0,2.37-1.14.24-.78.56-3.38.56-4.25,0-.31,0-1.12-.6-1.12-.51,0-.62.46-.69.77-.27,1.52-.7,2.23-1.59,2.63-1.11.47-3.06.47-3.7.47-4.09,0-5.11-.58-5.2-2.93-.03-.78-.02-2.59,0-4.06v-.03c0-.6,0-1.13,0-1.5v-3.02c0-.1.01-.15.02-.17,1.06,0,5.54.09,6.25.18,1.48.13,1.85.7,2.03,1.28.06.3.08.6.1.89.01.16.02.32.04.45,0,.34.23.55.6.55.29,0,.65-.19.65-1.08,0-.26.09-1.77.18-2.51.08-.63.14-1.13.18-1.51v-.05c.1-.75.14-1.06.14-1.22,0-.36-.24-.64-.55-.64-.22,0-.36.14-.54.31-.07.07-.15.15-.26.24-.34.29-.81.43-1.79.52-.57.06-3.13.09-7,.09,0,0-.02,0-.02,0,0,0-.02-.03-.02-.17v-9.34c0-.1.02-.12.02-.12,0,0,.01,0,.02,0,.83,0,5.61.09,6.28.18,1.94.17,2.18.67,2.46,1.25.2.38.25.98.25,1.27,0,.2,0,.72.55.72.48,0,.62-.56.68-.77v-.04c.07-.31.13-1.11.18-1.76.02-.33.05-.61.06-.76.06-1.18.19-1.74.26-2.08.04-.16.06-.27.06-.38,0-.55-.39-.59-.51-.59-.15,0-.28.05-.43.1-.08.03-.18.06-.25.08-.08,0-.17.03-.28.04h-.03c-.35.06-.83.14-1.36.18-.58.03-6,.01-8.91,0h-.1c-.92,0-1.63,0-1.93,0-.48,0-1.22-.02-2.07-.03h-.03c-1.17-.03-2.5-.05-3.7-.05-.34,0-1.15,0-1.15.59,0,.4.34.63.92.63.65,0,1.27.05,1.53.12,1.2.33,1.48.66,1.56,1.83.05,1.2.05,2.23.05,7.99v6.67c0,3.45,0,6.43-.18,8.02-.13,1.05-.33,1.65-1.01,1.8-.35.09-.79.13-1.36.13-.64,0-.87.33-.87.64,0,.24.13.63,1.01.63.81,0,1.74-.04,2.78-.09.57,0,1.11-.02,1.55-.03h.03Z"/>
      <path d="M245.94,88.55c-.37,0-.76-.04-1.29-.13-.66-.14-1.59-.7-2.88-3.9-1.03-2.6-2.83-7.18-4.56-11.6l-.2-.52c-2-5.09-3.88-9.89-4.34-11-.36-.84-.58-1.34-1.27-1.34-.54,0-.87.61-1.27,1.66l-9.34,23.61c-.77,2.01-1.35,2.95-2.75,3.18-.17,0-.37.01-.54.02-.18.01-.36.02-.51.02-.38,0-.64.26-.64.63,0,.63.64.63.89.63,1.3,0,2.63-.06,3.43-.1.35-.02.61-.03.71-.03.56,0,1.27.03,1.95.07.67.03,1.43.07,2.04.07.2,0,.8,0,.8-.63,0-.42-.26-.63-.76-.63h-.53c-1.1,0-1.19-.41-1.19-.83,0-.37.14-1.27.51-2.23l1.91-5.11c.02-.05.04-.1.04-.11,0,0,.04,0,.06,0h8.41c.08,0,.1,0,.14.11l2.76,7.65c.08.21.02.35-.02.42-.04.07-.09.11-.12.11-.45.05-.66.26-.65.63.01.53.41.53.91.54h.38c3.01.1,5.62.1,6.87.1,1.17,0,1.78-.03,1.78-.63,0-.15-.05-.63-.72-.63ZM227.03,77.72l3.41-9.3,3.3,9.28-6.7.02Z"/>
      <path d="M199.59,60.68c-.49-.07-.82-.21-1.06-.3-.2-.08-.35-.14-.52-.14-.49,0-.59.63-.63.89-.07.27-.78,3.97-.78,4.64,0,.57.19.86.56.86.46,0,.57-.43.63-.65.09-.29.25-.74.58-1.23.47-.75,1.26-1,3.26-1.05l5.08-.13v15.05c0,3.45,0,6.43-.16,8.02-.12,1.06-.29,1.66-.89,1.8-.25.08-.67.12-1.19.12-.59,0-.8.34-.8.63,0,.19.09.63.93.63s1.94-.04,2.94-.08h.02c.74-.03,1.37-.05,1.71-.05.4,0,1.02.02,1.74.05h.03c1.15.04,2.58.09,4,.09.58,0,.92-.24.92-.63,0-.31-.28-.63-.8-.63s-1.32-.04-1.79-.13c-.86-.15-1.06-.66-1.19-1.75-.14-1.42-.2-3.9-.2-8.07v-15.05l4.27.08c3.46.05,3.95,1.39,3.99,1.97l.04.39c.03.41.07.97.64.97.48,0,.53-.59.56-.86,0-.51.02-1.52.04-2.49v-.07c.02-.85.04-1.64.04-2.02,0-.46,0-1.03-.52-1.03-.08,0-.19.02-.35.06-.16.03-.37.08-.67.12-.7.12-1.48.17-2.4.17h-14.5c-.98,0-2.4-.03-3.54-.18Z"/>
      <path d="M175.27,89.27c2.19.82,4.51,1.17,7.76,1.17s6.16-.6,8.46-1.85c4.37-2.42,5.02-5.97,5.02-7.88,0-4.66-3.17-7.56-9.03-11.29l-1.48-.94c-3.33-2.14-5.26-3.91-5.26-6.59s2.49-4.52,6.2-4.52c3.3,0,4.83,1.24,5.7,2.17,1.1,1.16,1.35,2.51,1.35,2.89,0,.22,0,.9.62.9.56,0,.68-.55.68-1.44,0-2.48.11-3.84.17-4.65.03-.32.04-.55.04-.73,0-.42-.39-.55-.81-.63-1.56-.36-3.77-.76-7.06-.76-7.25,0-12.31,3.52-12.31,8.56,0,3.9,2.28,7,7.87,10.7l2.43,1.61c4.27,2.83,5.14,4.88,5.14,7.09,0,3.26-3.61,5.02-7,5.02-2.21,0-6.11-.58-7.48-4.46-.24-.68-.47-1.64-.47-2.26,0-.23,0-.85-.62-.85-.56,0-.69.71-.73,1.25v.15c-.07.84-.26,3.4-.26,5.73,0,1.01.18,1.28,1.06,1.61Z"/>
      <path d="M287.4,83.39c-.51,0-.62.46-.69.77-.27,1.52-.7,2.23-1.6,2.63-1.11.47-3.06.47-3.7.47-4.09,0-5.11-.58-5.2-2.93-.03-.78-.02-2.6,0-4.06,0-.61,0-1.16,0-1.54v-3.02c0-.1.01-.15.02-.17,1.06,0,5.54.09,6.25.18,1.48.13,1.85.7,2.03,1.28.06.3.08.6.09.89.01.17.02.33.04.45,0,.34.23.55.6.55.29,0,.65-.19.65-1.08,0-.26.09-1.77.18-2.51.08-.66.14-1.17.19-1.56v-.03c.09-.73.13-1.03.13-1.19,0-.36-.24-.64-.55-.64-.22,0-.36.14-.54.31-.07.07-.15.15-.26.24-.34.29-.81.43-1.79.52-.57.06-3.13.09-7,.09,0,0-.02,0-.02,0,0,0-.02-.03-.02-.17v-9.34c0-.1.02-.12.02-.12,0,0,.01,0,.02,0,.83,0,5.61.09,6.28.18,1.94.17,2.18.67,2.46,1.25.2.38.25.98.25,1.27,0,.2,0,.72.55.72.48,0,.62-.56.67-.76v-.05c.07-.31.13-1.12.18-1.77v-.06c.03-.3.05-.56.06-.7.06-1.18.19-1.74.26-2.07.04-.17.06-.27.06-.38,0-.55-.39-.59-.51-.59-.15,0-.29.05-.42.1-.09.03-.18.06-.25.08-.08.01-.18.03-.31.05-.35.06-.83.14-1.36.17-.58.03-5.95.02-8.84,0h-.17c-.92,0-1.63,0-1.93,0-.48,0-1.22-.02-2.07-.03-1.18-.03-2.52-.05-3.73-.05-.34,0-1.15,0-1.15.59,0,.4.34.63.92.63.65,0,1.27.05,1.53.12,1.2.33,1.48.66,1.56,1.83.05,1.2.05,2.23.05,7.99v6.67c0,3.45,0,6.43-.18,8.02-.13,1.05-.33,1.65-1.01,1.8-.35.08-.79.13-1.36.13-.64,0-.87.33-.87.64,0,.24.13.63,1.01.63.8,0,1.74-.04,2.78-.09.56,0,1.09-.02,1.52-.03h.04c.29-.01.54-.02.73-.02.91,0,1.98.03,3.35.06l1.29.03c1.99.09,4.41.13,7.4.13,1.53,0,2.05,0,2.37-1.14.24-.78.56-3.38.56-4.25,0-.31,0-1.12-.6-1.12Z"/>
      <path d="M264.8,60.5c-.08,0-.18.02-.34.06-.16.03-.37.08-.67.13-.7.12-1.48.17-2.4.17h-14.5c-.98,0-2.4-.03-3.54-.17-.49-.07-.82-.21-1.06-.3-.19-.08-.35-.14-.52-.14-.49,0-.59.63-.63.89-.07.27-.78,3.97-.78,4.64,0,.57.19.86.56.86.46,0,.57-.43.63-.66.09-.29.25-.74.58-1.23.47-.75,1.26-1,3.26-1.05l5.08-.13v15.05c0,3.45,0,6.43-.16,8.02-.12,1.06-.29,1.66-.89,1.8-.25.08-.68.12-1.19.12-.59,0-.8.34-.8.63,0,.19.09.63.92.63s1.94-.04,2.94-.08h.02c.74-.03,1.37-.05,1.71-.05.4,0,1.02.02,1.74.05h.03c1.15.04,2.58.09,4,.09.58,0,.93-.24.93-.63,0-.32-.28-.63-.8-.63s-1.32-.04-1.79-.13c-.86-.14-1.06-.66-1.19-1.75-.14-1.41-.2-3.9-.2-8.07v-15.05l4.27.08c3.46.05,3.95,1.39,3.99,1.97l.04.39c.03.41.07.97.64.97.48,0,.54-.6.56-.86,0-.52.02-1.57.04-2.49v-.03c.02-.87.04-1.68.04-2.06,0-.46,0-1.03-.52-1.03Z"/>
    </g>
  </g>
</svg>