<?xml version="1.0" encoding="UTF-8"?>
<svg id="Layer_2" data-name="Layer 2" xmlns="http://www.w3.org/2000/svg" viewBox="0 0 249.07 110.68">
  <defs>
    <style>
      .cls-1 {
        fill: #231f20;
      }
    </style>
  </defs>
  <g id="Black">
    <g>
      <path class="cls-1" d="M104.13,8.9l-.84-.12c-.1-.01-.19-.08-.23-.17l-.38-.76c-.11-.23-.44-.23-.55,0l-.38.76c-.04.09-.13.15-.23.17l-.84.12c-.25.04-.35.35-.17.52l.61.59c.07.07.11.17.09.27l-.14.84c-.04.25.22.44.45.32l.75-.39c.09-.05.2-.05.29,0l.75.39c.23.12.49-.07.45-.32l-.14-.84c-.02-.1.02-.2.09-.27l.61-.59c.18-.18.08-.49-.17-.52Z"/>
      <path class="cls-1" d="M148.55,9.43c.18-.18.08-.49-.17-.52l-.84-.12c-.1-.01-.19-.08-.23-.17l-.38-.76c-.11-.23-.44-.23-.55,0l-.38.76c-.04.09-.13.15-.23.17l-.84.12c-.25.04-.35.35-.17.52l.61.59c.07.07.11.17.09.27l-.14.84c-.04.25.22.44.45.32l.75-.39c.09-.05.2-.05.29,0l.75.39c.23.12.49-.07.45-.32l-.14-.84c-.02-.1.02-.2.09-.27l.61-.59Z"/>
      <path class="cls-1" d="M137.08,6.7l-.84-.12c-.1-.01-.19-.08-.23-.17l-.38-.76c-.11-.23-.44-.23-.55,0l-.38.76c-.04.09-.13.15-.23.17l-.84.12c-.25.04-.35.35-.17.52l.61.59c.07.07.11.17.09.27l-.14.84c-.04.25.22.44.45.32l.75-.39c.09-.05.2-.05.29,0l.75.39c.23.12.49-.07.45-.32l-.14-.84c-.02-.1.02-.2.09-.27l.61-.59c.18-.18.08-.49-.17-.52Z"/>
      <path class="cls-1" d="M116.57,6.7l-.84-.12c-.1-.01-.19-.08-.23-.17l-.38-.76c-.11-.23-.44-.23-.55,0l-.38.76c-.04.09-.13.15-.23.17l-.84.12c-.25.04-.35.35-.17.52l.61.59c.07.07.11.17.09.27l-.14.84c-.04.25.22.44.45.32l.75-.39c.09-.05.2-.05.29,0l.75.39c.23.12.49-.07.45-.32l-.14-.84c-.02-.1.02-.2.09-.27l.61-.59c.18-.18.08-.49-.17-.52Z"/>
      <path class="cls-1" d="M126.66,1.22l-.84-.12c-.1-.01-.19-.08-.23-.17l-.38-.76c-.11-.23-.44-.23-.55,0l-.38.76c-.04.09-.13.15-.23.17l-.84.12c-.25.04-.35.35-.17.52l.61.59c.07.07.11.17.09.27l-.14.84c-.04.25.22.44.45.32l.75-.39c.09-.05.2-.05.29,0l.75.39c.23.12.49-.07.45-.32l-.14-.84c-.02-.1.02-.2.09-.27l.61-.59c.18-.18.08-.49-.17-.52Z"/>
    </g>
    <path class="cls-1" d="M145.21,12.9l-6.56,6.49-3.05-7.95c-.27-.72-1.22-.88-1.72-.3l-2.87,3.36-5.34-8.68c-.47-.93-1.81-.93-2.28,0l-5.34,8.68-2.87-3.36c-.5-.58-1.44-.42-1.72.3l-3.05,7.94-6.56-6.49c-1.03-1.02-2.7.15-2.1,1.47,3.9,8.48,6.27,19.89,5.77,27.76h0c-.08,1.24,1.47,1.88,2.28.93l8.7-10.06c.49-.57,1.36-.6,1.9-.07l2.31,2.28c.37.42.71.77,1.04,1,.27.2.53.29.78.29.08,0,.17-.01.26-.03.26-.04.51-.16.7-.36l3.37-3.35c.53-.35,1.26-.26,1.7.24l8.7,10.06c.82.94,2.36.31,2.28-.93h0c-.5-7.87,1.87-19.29,5.77-27.76.61-1.32-1.07-2.49-2.1-1.47ZM133.01,16.12c.5-.58,1.44-.42,1.72.3l1.65,4.3c.14.37.05.8-.23,1.08l-7.32,7.27c-.06-.12-.14-.25-.23-.36l-2.69-3.11c-.17-.2-.38-.35-.61-.46,0,0,0,0,0,0l7.72-9.02ZM120.31,15.85l3.11-4.3c.47-.93,1.81-.93,2.28,0l3.11,4.3c.23.46.17,1.02-.17,1.41l-4.08,4.77-4.08-4.77c-.34-.39-.4-.95-.17-1.41ZM112.68,20.69l1.64-4.28c.27-.72,1.22-.88,1.72-.3l7.72,9.02s0,0,0,0c-.22.1-.43.25-.61.46l-2.66,3.08c-.1.11-.17.23-.24.36l-7.34-7.26c-.29-.28-.38-.71-.23-1.08ZM116.77,31.04l-4.5,5.2c-.75.87-2.17.41-2.28-.74-.22-2.42-.61-4.99-1.16-7.64-.27-1.31-.58-2.61-.92-3.9-.34-1.28,1.23-2.18,2.17-1.25l6.62,6.55c.49.48.52,1.26.07,1.78ZM141.16,23.97c-.34,1.28-.65,2.58-.92,3.9-.55,2.65-.94,5.22-1.16,7.64-.1,1.15-1.52,1.61-2.28.74l-4.5-5.2c-.41-.47-.42-1.16-.05-1.64l6.11-6.07.62-.62c.94-.93,2.51-.03,2.17,1.25Z"/>
    <g>
      <path class="cls-1" d="M9.73,102.53c-1.16-.38-1.52-1.09-1.52-2.27v-21h0c.03-1.28,1.05-2.27,2.41-2.27.05,0,.33,0,.37,0v-.36s-2.88,0-2.88,0H0v.36s.42,0,.47,0c1.24,0,2.28.99,2.31,2.27v20.05c-.03,1.3-1.08,2.27-2.31,2.27H0v.36c3.55.01,6.25,1.19,8.58,2.32,7.17,3.46,25.84,11.64,33.15,1.5l-.25-.27c-4.85,3.11-20.25.8-31.76-2.98Z"/>
      <path class="cls-1" d="M83.52,67.72c-7.59-.73-11.12,5.66-12.55,9.02l-7.49,17.47-6.13-14.96h.02c-.53-1.45.44-2.27,1.37-2.27h.32v-.36h-11.53v.36h.29c1.07,0,2.31.61,3.09,2.07l10.96,23.62h.33c.09-1.05,11.47-25.94,11.47-25.94,2.77-5.54,6-8.67,9.85-8.66v-.36Z"/>
      <path class="cls-1" d="M20.72,101.59h-.32c-.81,0-1.69-.61-1.54-1.71l2.21-5.15h8.88l1.79,4.37h-.02c.53,1.45-.44,2.27-1.37,2.27h-.32v.36h11.53v-.36h-.29c-1.07,0-2.31-.61-3.09-2.07l-8.86-19.72-1.28-3.18-1.7-.05-10.03,23.28c-.77,1.39-2,1.97-3.01,1.97h-.33v.36h7.76v-.36ZM25.6,84.15l3.71,9.07h-7.6l3.89-9.07Z"/>
      <path class="cls-1" d="M248.78,101.37c-1.07,0-2.31-.61-3.09-2.07l-8.86-19.72-1.28-3.18-1.7-.05-10.03,23.28c-.77,1.39-2,1.97-3.01,1.97h-.33v.36h7.76v-.36h-.32c-.81,0-1.69-.61-1.54-1.71l2.21-5.15h8.88l1.79,4.37h-.02c.53,1.45-.44,2.27-1.37,2.27h-.32v.36h11.53v-.36h-.29ZM229.23,93.21l3.89-9.07,3.71,9.07h-7.6Z"/>
      <path class="cls-1" d="M119.3,89.61c.19,8.46-6.1,11.33-10.38,11.33-6.69-.13-10.55-5.03-10.55-11.86s3.85-11.43,9.96-11.43c3.79,0,7.62,1.8,8.93,6.64h.3s-.07-6.21-.07-6.21c-2.09-1.09-5.51-1.96-9.29-1.96-9.45,0-15.74,5.36-15.74,13.24s5.88,13.09,15.94,13.09c6.13,0,12.02-4.93,11.22-12.85h-.32Z"/>
      <path class="cls-1" d="M139.57,76.59h-14.62c-1.56-.02-3.62-.38-4.29-.66v6.31h.36s0-.43,0-.43c0-2.2,1.4-3.64,3.62-3.69h4.86v21.23c-.04,1.25-1.06,2.25-2.32,2.25h-.46v.36s.06,0,.06,0h10.99v-.36h-.46c-1.26,0-2.28-1-2.32-2.25v-21.23h4.86c2.22.06,3.62,1.49,3.62,3.69v.43s.36,0,.36,0v-6.31c-.67.28-2.73.64-4.29.66h0Z"/>
      <path class="cls-1" d="M160.95,75.31c-9.27,0-15.7,5.32-15.7,13.43,0,.07,0,.13,0,.2,0,.05,0,.09,0,.14,0,8.02,6.52,13.38,15.81,13.38s15.7-5.32,15.7-13.43c0-.07,0-.13,0-.2,0-.05,0-.09,0-.14,0-8.02-6.52-13.38-15.81-13.38ZM161.06,100.93c-5.74,0-9.73-4.74-9.84-12.47.12-7.07,4.07-11.62,9.75-11.62s9.73,4.74,9.84,12.47c-.12,7.07-4.07,11.62-9.75,11.62Z"/>
      <path class="cls-1" d="M205.74,101.94c-3.37-2.71-4.81-7.55-11.09-10.83-.98-.51-1.83-.86-2.41-1.07,4.79.27,8.41-3.31,8.46-6.67.05-3.63-4.07-7.56-9.26-6.75h-12.4s0,.36,0,.36h.44c1.26,0,2.29,1.01,2.31,2.27h0v20.07c-.04,1.28-1.08,2.26-2.31,2.26h-.46s0,.36,0,.36h11v-.36h-.45c-1.3,0-2.31-1.04-2.33-2.27h0v-21.09h2.74c2.62,0,4.79,1.81,4.93,5.06.04.84-.06,1.4-.13,1.75-.64,3.33-3.5,4.13-5.23,4.18-.44.03-.97,0-1.11.01v.34c1.69,1.37,4.33,3.66,7.14,6.89,4.49,5.17,4.75,7.38,8.29,9.49,5.07,3.03,10.39,1.99,10.96,1.87,3.17-.67,5.39-2.25,6.55-3.21-.18-.36-.04-.11-.21-.46-8.29,1.91-12.96-.23-15.43-2.21Z"/>
      <path class="cls-1" d="M91.33,76.27l-.07-.36c-3.43.65-11.45.75-11.45.75v1.5l3.24-.04v21.19c-.02,1.26-1.05,2.27-2.32,2.27h-.46s0,.36,0,.36h10.99v-.36s-.46,0-.46,0c-1.27,0-2.29-1.01-2.32-2.27v-19.65c.04-1.97.7-3.06,2.85-3.4Z"/>
      <path class="cls-1" d="M210.97,99.32c-.02,1.26-1.05,2.27-2.32,2.27h-.46s0,.36,0,.36h10.99v-.36s-.46,0-.46,0c-1.27,0-2.29-1.01-2.32-2.27v-19.65c.04-1.97.7-3.06,2.85-3.4l-.07-.36c-3.43.65-11.45.75-11.45.75v1.5l3.24-.04v21.19Z"/>
    </g>
    <g>
      <path class="cls-1" d="M34.17,56.79c1.04,0,1.79.24,2.25.72.46.48.7,1.21.7,2.19v.45c0,.65-.1,1.19-.31,1.61-.21.42-.53.74-.98.94.54.21.93.54,1.15,1,.22.46.33,1.03.33,1.71v1.03c0,.98-.25,1.72-.76,2.23-.51.51-1.26.77-2.26.77h-3.13v-12.66h3ZM33.16,58.6v3.35h.78c.37,0,.67-.1.88-.29.21-.19.32-.54.32-1.05v-.71c0-.46-.08-.79-.24-1-.16-.2-.42-.31-.77-.31h-.96ZM33.16,63.76v3.89h1.14c.34,0,.59-.09.77-.27.17-.18.26-.51.26-.98v-1.1c0-.59-.1-.99-.3-1.21-.2-.22-.53-.33-.99-.33h-.89Z"/>
      <path class="cls-1" d="M67.29,59.83c0-1.02.26-1.81.78-2.36.52-.55,1.27-.82,2.24-.82s1.72.27,2.24.82c.52.55.78,1.34.78,2.36v6.58c0,1.03-.26,1.81-.78,2.36-.52.55-1.27.82-2.24.82s-1.72-.27-2.24-.82c-.52-.55-.78-1.34-.78-2.36v-6.58ZM69.28,66.54c0,.46.09.78.28.97.19.19.44.28.75.28s.56-.09.75-.28.28-.51.28-.97v-6.84c0-.46-.09-.78-.28-.97-.19-.19-.44-.28-.75-.28s-.56.09-.75.28-.28.51-.28.97v6.84Z"/>
      <path class="cls-1" d="M103.56,56.79h3.15c1,0,1.75.27,2.23.8.49.53.73,1.31.73,2.33v6.4c0,1.03-.24,1.8-.73,2.33s-1.23.8-2.23.8h-3.15v-12.66ZM105.55,58.6v9.04h1.12c.31,0,.56-.09.74-.27.18-.18.27-.5.27-.96v-6.58c0-.46-.09-.78-.27-.96-.18-.18-.43-.27-.74-.27h-1.12Z"/>
      <path class="cls-1" d="M141.87,62.13h2.73v1.81h-2.73v3.71h3.44v1.81h-5.43v-12.66h5.43v1.81h-3.44v3.53Z"/>
      <path class="cls-1" d="M178.46,62.4h2.79v4.02c0,1.03-.25,1.81-.75,2.36-.5.55-1.24.82-2.22.82s-1.72-.27-2.22-.82c-.5-.55-.75-1.34-.75-2.36v-6.58c0-1.02.25-1.81.75-2.36.5-.55,1.24-.82,2.22-.82s1.72.27,2.22.82c.5.55.75,1.34.75,2.36v1.23h-1.88v-1.36c0-.46-.09-.78-.28-.97-.19-.19-.44-.28-.75-.28s-.56.09-.75.28c-.19.19-.28.51-.28.97v6.84c0,.46.09.78.28.96.19.18.44.27.75.27s.56-.09.75-.27c.19-.18.28-.5.28-.96v-2.33h-.9v-1.81Z"/>
      <path class="cls-1" d="M217.9,69.45h-2.01l-.34-2.3h-2.44l-.34,2.3h-1.83l2.03-12.66h2.91l2.03,12.66ZM213.36,65.44h1.92l-.96-6.4-.96,6.4Z"/>
    </g>
  </g>
</svg>