<?xml version="1.0" encoding="UTF-8"?>
<svg id="Layer_2" data-name="Layer 2" xmlns="http://www.w3.org/2000/svg" viewBox="0 0 754.72 141.51">
  <defs>
    <style>
      .cls-1 {
        fill: #231f20;
      }
    </style>
  </defs>
  <g id="Artwork">
    <g id="White">
      <g>
        <g>
          <path class="cls-1" d="M85.71,83.09h-17.92l-13.9-55.24h-.23l-13.67,55.24h-18.27L0,1.93h18.04l12.98,55.24h.23L45.5,1.93h16.89l14.02,55.92h.23L90.08,1.93h17.69l-22.06,81.16Z"/>
          <path class="cls-1" d="M116.04,1.93h18.04v81.16h-18.04V1.93Z"/>
          <path class="cls-1" d="M149.93,1.93h18.04v66.15h39.98v15h-58.02V1.93Z"/>
          <path class="cls-1" d="M230.36,56.15c0,2.73.5,5.04,1.49,6.93s2.32,3.43,3.96,4.6c1.65,1.17,3.58,2.05,5.8,2.61s4.52.85,6.89.85c1.61,0,3.33-.13,5.17-.4s3.56-.78,5.17-1.53,2.95-1.8,4.02-3.13,1.61-3.01,1.61-5.06c0-2.2-.71-3.98-2.13-5.34-1.42-1.36-3.27-2.5-5.57-3.41s-4.9-1.7-7.81-2.39-5.86-1.44-8.85-2.27c-3.06-.76-6.05-1.69-8.96-2.78-2.91-1.1-5.51-2.52-7.81-4.26s-4.16-3.92-5.57-6.54-2.13-5.78-2.13-9.49c0-4.17.9-7.79,2.7-10.85s4.16-5.63,7.07-7.67,6.2-3.56,9.88-4.55c3.68-.99,7.35-1.48,11.03-1.48,4.29,0,8.41.47,12.35,1.42,3.94.95,7.45,2.48,10.51,4.6s5.5,4.83,7.3,8.13c1.8,3.3,2.7,7.29,2.7,11.99h-17.46c-.15-2.42-.67-4.43-1.55-6.02s-2.05-2.84-3.5-3.75c-1.46-.91-3.12-1.55-5-1.93-1.88-.38-3.93-.57-6.15-.57-1.46,0-2.91.15-4.37.45-1.46.3-2.78.83-3.96,1.59-1.19.76-2.16,1.7-2.93,2.84-.77,1.14-1.15,2.58-1.15,4.32,0,1.59.31,2.88.92,3.86s1.82,1.89,3.62,2.73c1.8.83,4.29,1.67,7.47,2.5,3.18.83,7.33,1.89,12.47,3.18,1.53.3,3.66.85,6.38,1.65s5.42,2.06,8.1,3.81c2.68,1.74,5,4.07,6.95,6.99,1.95,2.92,2.93,6.65,2.93,11.2,0,3.71-.73,7.16-2.18,10.34-1.46,3.18-3.62,5.93-6.49,8.24-2.87,2.31-6.43,4.11-10.68,5.4-4.25,1.29-9.17,1.93-14.76,1.93-4.52,0-8.9-.55-13.16-1.65-4.25-1.1-8-2.82-11.26-5.17-3.26-2.35-5.84-5.34-7.76-8.98-1.91-3.64-2.83-7.96-2.76-12.96h17.46Z"/>
          <path class="cls-1" d="M289.06,42.85c0-6.06.92-11.69,2.76-16.88,1.84-5.19,4.48-9.72,7.93-13.58,3.45-3.86,7.68-6.9,12.7-9.09C317.46,1.1,323.11,0,329.39,0c6.36,0,12.03,1.1,17,3.3,4.98,2.2,9.19,5.23,12.64,9.09s6.09,8.39,7.93,13.58c1.84,5.19,2.76,10.82,2.76,16.88s-.92,11.42-2.76,16.54c-1.84,5.11-4.48,9.57-7.93,13.36-3.45,3.79-7.66,6.76-12.64,8.92s-10.65,3.24-17,3.24-11.93-1.08-16.95-3.24-9.25-5.13-12.7-8.92-6.09-8.24-7.93-13.36c-1.84-5.11-2.76-10.63-2.76-16.54ZM307.1,42.85c0,3.41.4,6.72,1.21,9.95s2.09,6.12,3.85,8.7,4.06,4.64,6.89,6.19c2.83,1.55,6.28,2.33,10.34,2.33s7.51-.78,10.34-2.33,5.13-3.62,6.89-6.19c1.76-2.58,3.04-5.47,3.85-8.7.8-3.22,1.21-6.54,1.21-9.95s-.4-7.01-1.21-10.34c-.8-3.33-2.09-6.31-3.85-8.92s-4.06-4.7-6.89-6.25c-2.83-1.55-6.28-2.33-10.34-2.33-4.06,0-7.51.78-10.34,2.33-2.83,1.55-5.13,3.64-6.89,6.25-1.76,2.61-3.04,5.59-3.85,8.92s-1.21,6.78-1.21,10.34Z"/>
          <path class="cls-1" d="M382.01,1.93h17.92l34.24,54.44h.23V1.93h16.89v81.16h-18.04l-34.12-54.33h-.23v54.33h-16.89V1.93Z"/>
          <path class="cls-1" d="M535.85,75.02c-3.29,3.18-6.8,5.57-10.51,7.16-3.71,1.59-7.91,2.39-12.58,2.39-3.68,0-7.14-.53-10.4-1.59s-6.07-2.63-8.44-4.72c-2.37-2.08-4.25-4.62-5.63-7.62-1.38-2.99-2.07-6.42-2.07-10.29,0-2.88.5-5.51,1.49-7.9s2.36-4.55,4.08-6.48,3.7-3.66,5.92-5.17,4.52-2.84,6.89-3.98c-2.22-2.65-4.08-5.3-5.57-7.96-1.49-2.65-2.24-5.76-2.24-9.32,0-2.8.59-5.34,1.78-7.62,1.19-2.27,2.78-4.22,4.77-5.85,1.99-1.63,4.27-2.88,6.84-3.75,2.57-.87,5.23-1.31,7.99-1.31,3.14,0,6.07.42,8.79,1.25s5.09,2.06,7.12,3.69c2.03,1.63,3.64,3.66,4.83,6.08s1.78,5.23,1.78,8.41c0,4.77-1.4,8.79-4.19,12.05s-6.26,5.99-10.4,8.18l10.57,12.84c.84-1.52,1.49-3.09,1.95-4.72s.8-3.28,1.03-4.94h14.13c-.38,3.64-1.23,7.16-2.53,10.57-1.3,3.41-3.1,6.55-5.4,9.43l16.66,19.21h-19.99l-6.66-8.07ZM513.22,47.28c-1.46.61-2.87,1.33-4.25,2.16-1.38.83-2.6,1.82-3.68,2.96s-1.93,2.39-2.59,3.75-.98,2.88-.98,4.55c0,1.44.33,2.82.98,4.15s1.51,2.46,2.59,3.41,2.32,1.7,3.73,2.27,2.89.85,4.42.85c2.91,0,5.46-.66,7.64-1.99,2.18-1.33,4.23-3.05,6.15-5.17l-14.02-16.94ZM526.43,19.55c0-2.12-.75-3.94-2.24-5.46-1.49-1.52-3.24-2.27-5.23-2.27-1.99,0-3.71.66-5.17,1.99-1.46,1.33-2.18,3.05-2.18,5.17,0,2.58.69,4.77,2.07,6.59s2.83,3.68,4.37,5.57c2.3-1.44,4.27-2.99,5.92-4.66,1.65-1.67,2.47-3.98,2.47-6.93Z"/>
          <path class="cls-1" d="M647.18,29.21c-.31-2.05-1-3.92-2.07-5.63-1.07-1.7-2.41-3.2-4.02-4.49-1.61-1.29-3.43-2.29-5.46-3.01-2.03-.72-4.16-1.08-6.38-1.08-4.06,0-7.51.78-10.34,2.33-2.83,1.55-5.13,3.64-6.89,6.25-1.76,2.61-3.04,5.59-3.85,8.92-.8,3.33-1.21,6.78-1.21,10.34s.4,6.72,1.21,9.95,2.09,6.12,3.85,8.7,4.06,4.64,6.89,6.19,6.28,2.33,10.34,2.33c5.51,0,9.82-1.67,12.93-5s5-7.73,5.69-13.18h17.46c-.46,5.08-1.65,9.66-3.56,13.75-1.91,4.09-4.44,7.58-7.58,10.46s-6.82,5.08-11.03,6.59c-4.21,1.52-8.85,2.27-13.9,2.27-6.28,0-11.93-1.08-16.95-3.24s-9.25-5.13-12.7-8.92c-3.45-3.79-6.09-8.24-7.93-13.36s-2.76-10.63-2.76-16.54.92-11.69,2.76-16.88c1.84-5.19,4.48-9.72,7.93-13.58,3.45-3.86,7.68-6.9,12.7-9.09,5.02-2.2,10.67-3.3,16.95-3.3,4.52,0,8.79.64,12.81,1.93s7.62,3.16,10.8,5.63c3.18,2.46,5.8,5.51,7.87,9.15,2.07,3.64,3.37,7.8,3.91,12.5h-17.46Z"/>
          <path class="cls-1" d="M674.07,42.85c0-6.06.92-11.69,2.76-16.88,1.84-5.19,4.48-9.72,7.93-13.58,3.45-3.86,7.68-6.9,12.7-9.09,5.02-2.2,10.67-3.3,16.95-3.3,6.36,0,12.03,1.1,17,3.3,4.98,2.2,9.19,5.23,12.64,9.09s6.09,8.39,7.93,13.58c1.84,5.19,2.76,10.82,2.76,16.88s-.92,11.42-2.76,16.54c-1.84,5.11-4.48,9.57-7.93,13.36-3.45,3.79-7.66,6.76-12.64,8.92-4.98,2.16-10.65,3.24-17,3.24s-11.93-1.08-16.95-3.24-9.25-5.13-12.7-8.92c-3.45-3.79-6.09-8.24-7.93-13.36-1.84-5.11-2.76-10.63-2.76-16.54ZM692.11,42.85c0,3.41.4,6.72,1.21,9.95s2.09,6.12,3.85,8.7c1.76,2.58,4.06,4.64,6.89,6.19s6.28,2.33,10.34,2.33,7.51-.78,10.34-2.33,5.13-3.62,6.89-6.19c1.76-2.58,3.04-5.47,3.85-8.7.8-3.22,1.21-6.54,1.21-9.95s-.4-7.01-1.21-10.34-2.09-6.31-3.85-8.92-4.06-4.7-6.89-6.25-6.28-2.33-10.34-2.33c-4.06,0-7.51.78-10.34,2.33-2.83,1.55-5.13,3.64-6.89,6.25-1.76,2.61-3.04,5.59-3.85,8.92s-1.21,6.78-1.21,10.34Z"/>
        </g>
        <g>
          <rect class="cls-1" y="121.7" width="150.94" height="1.89"/>
          <rect class="cls-1" x="603.78" y="121.7" width="150.94" height="1.89"/>
          <g>
            <path class="cls-1" d="M188.68,104.63h18.92c1.57,0,2.99.26,4.25.78,1.26.52,2.34,1.24,3.24,2.15.9.91,1.59,1.96,2.06,3.16.47,1.2.71,2.48.71,3.86,0,2.12-.43,3.96-1.3,5.51-.87,1.55-2.28,2.73-4.25,3.54v.1c.95.27,1.74.68,2.36,1.24s1.13,1.21,1.52,1.97.68,1.59.86,2.5c.18.91.3,1.82.37,2.73.03.57.07,1.25.1,2.02.03.77.09,1.57.17,2.37.08.81.21,1.57.39,2.3.18.72.45,1.34.81,1.84h-7.71c-.43-1.14-.69-2.51-.79-4.09-.1-1.58-.25-3.1-.44-4.55-.26-1.89-.82-3.27-1.67-4.14-.85-.88-2.24-1.31-4.18-1.31h-7.71v14.09h-7.71v-36.07ZM196.39,120.95h8.45c1.77,0,3.1-.4,3.98-1.21.88-.81,1.33-2.12,1.33-3.94s-.44-3.02-1.33-3.81c-.88-.79-2.21-1.19-3.98-1.19h-8.45v10.15Z"/>
            <path class="cls-1" d="M224.15,104.63h26.24v6.67h-18.52v7.73h17v6.16h-17v8.84h18.92v6.67h-26.63v-36.07Z"/>
            <path class="cls-1" d="M265.57,104.63h7.91l13.12,36.07h-8.01l-2.65-8.03h-13.12l-2.75,8.03h-7.76l13.27-36.07ZM264.83,126.76h9.09l-4.42-13.24h-.1l-4.57,13.24Z"/>
            <path class="cls-1" d="M289.64,104.63h7.71v29.4h17.1v6.67h-24.81v-36.07Z"/>
            <path class="cls-1" d="M322.02,111.3h-10.51v-6.67h28.74v6.67h-10.51v29.4h-7.71v-29.4Z"/>
            <path class="cls-1" d="M353.36,126.66l-12.87-22.03h8.65l8.21,14.25,8.16-14.25h8.6l-13.02,22.23v13.84h-7.71v-14.04Z"/>
            <path class="cls-1" d="M416.05,136.61c-1.38,1.82-2.9,3.09-4.57,3.81-1.67.72-3.36,1.09-5.06,1.09-2.69,0-5.1-.48-7.25-1.44-2.15-.96-3.96-2.28-5.43-3.97s-2.6-3.66-3.39-5.94c-.79-2.27-1.18-4.72-1.18-7.35s.39-5.19,1.18-7.5c.79-2.31,1.92-4.32,3.39-6.04,1.47-1.72,3.28-3.06,5.43-4.04,2.15-.98,4.56-1.46,7.25-1.46,1.8,0,3.55.28,5.23.83s3.21,1.37,4.57,2.45,2.48,2.41,3.37,3.99c.88,1.58,1.43,3.4,1.62,5.46h-7.37c-.46-2.02-1.34-3.54-2.65-4.55-1.31-1.01-2.9-1.52-4.77-1.52-1.74,0-3.21.35-4.42,1.04-1.21.69-2.19,1.62-2.95,2.78s-1.3,2.48-1.65,3.97-.52,3.01-.52,4.6.17,2.99.52,4.42.89,2.72,1.65,3.86c.75,1.15,1.74,2.06,2.95,2.75,1.21.69,2.69,1.04,4.42,1.04,2.56,0,4.53-.67,5.92-2,1.39-1.33,2.2-3.26,2.43-5.78h-7.76v-5.91h14.74v19.5h-4.91l-.79-4.09Z"/>
            <path class="cls-1" d="M427.99,104.63h18.92c1.57,0,2.99.26,4.25.78,1.26.52,2.34,1.24,3.24,2.15.9.91,1.59,1.96,2.06,3.16.48,1.2.71,2.48.71,3.86,0,2.12-.43,3.96-1.3,5.51-.87,1.55-2.28,2.73-4.25,3.54v.1c.95.27,1.74.68,2.36,1.24s1.13,1.21,1.52,1.97.68,1.59.86,2.5c.18.91.3,1.82.37,2.73.03.57.07,1.25.1,2.02.03.77.09,1.57.17,2.37.08.81.21,1.57.39,2.3.18.72.45,1.34.81,1.84h-7.71c-.43-1.14-.69-2.51-.79-4.09-.1-1.58-.25-3.1-.44-4.55-.26-1.89-.82-3.27-1.67-4.14-.85-.88-2.24-1.31-4.18-1.31h-7.71v14.09h-7.71v-36.07ZM435.7,120.95h8.45c1.77,0,3.1-.4,3.98-1.21.88-.81,1.33-2.12,1.33-3.94s-.44-3.02-1.33-3.81c-.88-.79-2.21-1.19-3.98-1.19h-8.45v10.15Z"/>
            <path class="cls-1" d="M461.93,122.82c0-2.69.39-5.19,1.18-7.5.79-2.31,1.92-4.32,3.39-6.04,1.47-1.72,3.28-3.06,5.43-4.04,2.15-.98,4.56-1.46,7.25-1.46s5.14.49,7.27,1.46c2.13.98,3.93,2.32,5.4,4.04,1.47,1.72,2.6,3.73,3.39,6.04.79,2.31,1.18,4.81,1.18,7.5s-.39,5.08-1.18,7.35c-.79,2.27-1.92,4.25-3.39,5.94-1.47,1.68-3.28,3.01-5.4,3.97-2.13.96-4.55,1.44-7.27,1.44s-5.1-.48-7.25-1.44c-2.15-.96-3.96-2.28-5.43-3.97-1.47-1.68-2.6-3.66-3.39-5.94-.79-2.27-1.18-4.72-1.18-7.35ZM469.65,122.82c0,1.52.17,2.99.52,4.42.34,1.43.89,2.72,1.65,3.86.75,1.15,1.74,2.06,2.95,2.75,1.21.69,2.69,1.04,4.42,1.04s3.21-.35,4.42-1.04c1.21-.69,2.19-1.61,2.95-2.75.75-1.14,1.3-2.43,1.65-3.86.34-1.43.52-2.9.52-4.42s-.17-3.12-.52-4.6-.89-2.8-1.65-3.97c-.75-1.16-1.74-2.09-2.95-2.78-1.21-.69-2.69-1.04-4.42-1.04s-3.21.35-4.42,1.04c-1.21.69-2.19,1.62-2.95,2.78s-1.3,2.48-1.65,3.97c-.34,1.48-.52,3.01-.52,4.6Z"/>
            <path class="cls-1" d="M531.45,127.06c0,4.88-1.33,8.51-3.98,10.89-2.65,2.37-6.32,3.56-11.01,3.56s-8.43-1.18-11.03-3.54c-2.6-2.36-3.91-5.99-3.91-10.91v-22.43h7.71v22.43c0,.98.08,1.94.25,2.88.16.94.51,1.78,1.03,2.5.52.72,1.25,1.31,2.19,1.77.93.45,2.19.68,3.76.68,2.75,0,4.65-.63,5.7-1.9,1.05-1.26,1.57-3.24,1.57-5.94v-22.43h7.71v22.43Z"/>
            <path class="cls-1" d="M538.08,104.63h15.82c2.19,0,4.06.33,5.6.98,1.54.66,2.79,1.52,3.76,2.6.97,1.08,1.67,2.31,2.11,3.69.44,1.38.66,2.81.66,4.29s-.22,2.87-.66,4.27c-.44,1.4-1.15,2.64-2.11,3.71s-2.22,1.95-3.76,2.6c-1.54.66-3.41.99-5.6.99h-8.11v12.93h-7.71v-36.07ZM545.8,121.61h5.99c.88,0,1.74-.07,2.55-.2.82-.13,1.54-.4,2.16-.78.62-.39,1.12-.93,1.5-1.64.38-.71.57-1.63.57-2.78s-.19-2.07-.57-2.78c-.38-.71-.88-1.25-1.5-1.64s-1.34-.65-2.16-.78c-.82-.13-1.67-.2-2.55-.2h-5.99v10.81Z"/>
          </g>
        </g>
      </g>
    </g>
  </g>
</svg>