<?xml version="1.0" encoding="UTF-8"?>
<svg id="Layer_2" data-name="Layer 2" xmlns="http://www.w3.org/2000/svg" viewBox="0 0 216 58.25">
  <g id="Artwork">
    <g>
      <path d="M84.73,47.79c-.95,1.71-2.66,2.74-4.52,2.74-2.8,0-5.13-2.21-5.13-5.06s2.29-5.08,5.12-5.08c1.82,0,3.71,1.05,4.49,2.68h-1.1c-.76-1.13-2.08-1.79-3.41-1.79-2.79,0-5.17,3.16-3.64,6.13.56,1.09,1.6,1.89,2.8,2.14,1.68.35,3.21-.34,4.29-1.77h1.1Z"/>
      <polygon points="96.85 50.36 96.85 45.76 91.78 45.76 91.78 50.36 90.8 50.36 90.8 40.56 91.78 40.56 91.78 44.88 96.85 44.88 96.85 40.56 97.84 40.56 97.84 50.36 96.85 50.36"/>
      <path d="M110.04,40.56h.98v6.22c0,2.48-1.44,3.76-3.34,3.76s-3.34-1.25-3.34-3.79v-6.19h.98v6.24c0,1.97,1.06,2.85,2.36,2.85,1.13,0,2.36-.7,2.36-2.84v-6.25Z"/>
      <path d="M122.74,50.36l-3.33-4.44h.95c1.74,0,2.77-.89,2.77-2.23,0-.93-.57-2.25-2.82-2.25h-1.87v8.92h-.98v-9.81h2.95c2.56,0,3.7,1.51,3.7,3.17s-1.19,2.85-2.92,2.98l2.77,3.66h-1.23Z"/>
      <path d="M139.31,47.79c-.95,1.71-2.66,2.74-4.52,2.74-2.8,0-5.13-2.21-5.13-5.06s2.29-5.08,5.12-5.08c1.82,0,3.71,1.05,4.49,2.68h-1.1c-.76-1.13-2.08-1.79-3.41-1.79-2.79,0-5.17,3.16-3.64,6.13.56,1.09,1.6,1.89,2.8,2.14,1.68.35,3.21-.34,4.29-1.77h1.1Z"/>
      <polygon points="151.44 50.36 151.44 45.76 146.36 45.76 146.36 50.36 145.38 50.36 145.38 40.56 146.36 40.56 146.36 44.88 151.44 44.88 151.44 40.56 152.42 40.56 152.42 50.36 151.44 50.36"/>
      <path d="M77.39,22.04c.89,3.41,3.59,5.59,6.74,5.59,2.41,0,4.67-1.26,5.85-3.44h3.85c-1.59,4.22-5.45,6.96-9.86,6.96-5.78,0-10.45-5.11-10.45-10.6,0-6.48,4.89-11,10.34-11,6.04,0,10.63,4.67,10.63,10.56,0,.63,0,1.22-.11,1.93h-17ZM90.65,19.07c-.3-3.48-3.37-6-6.67-6s-6.3,2.48-6.59,6h13.26Z"/>
      <polygon points="103.35 30.63 95.2 10.11 99.32 10.11 104.69 24.78 104.76 24.78 110.02 10.11 114.14 10.11 106.06 30.63 103.35 30.63"/>
      <path d="M132.8,30.63v-3.19h-.07c-1.44,2.45-4.04,3.7-6.96,3.7-6,0-10.89-4.52-10.89-10.45,0-6.56,4.71-11.15,10.74-11.15,3,0,5.52,1.11,7.11,3.45h.07v-2.89h3.85v20.52h-3.85ZM132.88,20.41c0-4-2.89-7.34-7.15-7.34-3.85,0-7,3.3-7,7.34s3.15,7.22,7,7.22,7.15-3.33,7.15-7.22"/>
      <path d="M155.55,30.63v-11.19c0-4.34-1.71-6.37-5.11-6.37s-5.41,2.48-5.41,6.34v11.22h-3.85V10.11h3.59v2.19h.07c1.52-1.96,3.63-2.74,6-2.74,4.93,0,8.56,3.11,8.56,8.78v12.3h-3.85Z"/>
      <path d="M180.89,27.93c-1.59,2.15-4.15,3.22-7.08,3.22-5.89,0-10.97-5.08-10.97-10.63,0-6.19,4.82-10.97,11-10.97,2.67,0,5.48,1.11,7.11,2.93v-2.37h3.85v17.82c0,6.67-4.11,10.78-11.08,10.78-4.71,0-8.41-2.48-10.15-6.48h4.3c1.44,2.04,3.37,2.96,5.89,2.96,4.71,0,7.19-2.56,7.19-7.26h-.07ZM180.96,20.37c0-4.82-3.67-7.3-7.22-7.3-3.82,0-7.04,3.3-7.04,7.3s3.26,7.26,7.07,7.26c4.48,0,7.19-3.93,7.19-7.26"/>
      <path d="M191.59,22.04c.89,3.41,3.59,5.59,6.74,5.59,2.41,0,4.67-1.26,5.85-3.44h3.85c-1.59,4.22-5.45,6.96-9.85,6.96-5.78,0-10.45-5.11-10.45-10.6,0-6.48,4.89-11,10.34-11,6.04,0,10.63,4.67,10.63,10.56,0,.63,0,1.22-.11,1.93h-17ZM204.85,19.07c-.3-3.48-3.37-6-6.67-6s-6.3,2.48-6.59,6h13.26Z"/>
      <path d="M212.15,30.63V5.7c0-.73.47-1.38,1.16-1.6l2.53-.83c.08-.03.16.03.16.12v27.25h-3.85Z"/>
      <path d="M29.12,0C13.04,0,0,13.04,0,29.12c0,4.22.9,8.22,2.51,11.84,1.76-2.06,3.63-3.89,5.56-5.52-.19-.67-.36-1.36-.49-2.06-.22-1.22-.37-2.42-.39-3.64-.01-.71.28-1.39.8-1.87,1.79-1.62,4.52-3.81,7.84-5.57-.9,2.01-1.71,4.86-1.23,8.23,0,.05.01.1.02.16,13.54-8.31,27.4-8.73,27.4-8.73h.01c-.91-1.75-2.14-3.29-3.61-4.55-.82-.72-1.71-1.33-2.65-1.83-1.32-.74-2.75-1.21-4.29-1.44-.83-.15-1.74-.23-2.71-.23-4.14,0-8.73,1.32-13.28,3.81-2.6,1.42-5.13,3.2-7.49,5.26C10.63,13.53,19.1,6.61,29.16,6.61s17.76,6.31,20.75,15.11c.63,1.82,1.03,3.75,1.16,5.76h0s0,0,0,0h0s0,0-.01,0c-15.02-.53-26.39,3.69-34.81,8.73.06.12.12.24.19.36.42.78.91,1.52,1.47,2.21,1.6,2.11,3.6,3.91,5.88,5.25,1.54.91,3.19,1.6,4.91,2.07h0c4.15,1.18,11.61,1.48,17.37-2.59-4.02,4.95-10.08,8.11-16.86,8.12h-.03c-8.14-.03-15.24-4.56-19.04-11.28-2.07,1.56-3.9,3.11-5.49,4.53,5.18,8.04,14.22,13.36,24.49,13.36,16.08,0,29.12-13.04,29.12-29.12S45.21,0,29.12,0M50.98,31.75c-.35,3.13-1.73,6.08-3.95,8.32l-.04.04c-.62.62-1.28,1.19-1.97,1.71-6,4-12.36,3.53-15.93,2.46.02,0,.04,0,.06,0h0c.12,0,.24,0,.36,0,.04,0,.08,0,.12,0,.08,0,.16,0,.24,0,.05,0,.1,0,.15,0,.07,0,.14,0,.2-.01.06,0,.11,0,.16-.01.06,0,.12-.01.18-.02.06,0,.12-.01.18-.02.05,0,.11-.01.16-.02l.19-.03s.09-.01.14-.02c.07-.01.14-.02.21-.03.03,0,.07-.01.1-.02.08-.01.17-.03.25-.04,0,0,0,0,.01,0,6.01-1.14,10.73-6.1,11.75-12.36,1.47-.11,2.96-.17,4.46-.17,1,0,1.99.02,2.97.07,0,.06-.01.12-.02.18"/>
    </g>
  </g>
</svg>