<?xml version="1.0" encoding="UTF-8"?>
<svg id="Layer_2" data-name="Layer 2" xmlns="http://www.w3.org/2000/svg" xmlns:xlink="http://www.w3.org/1999/xlink" viewBox="0 0 1896.36 1545">
  <defs>
    <style>
      .cls-1 {
        fill: none;
      }

      .cls-2 {
        clip-path: url(#clippath-1);
      }

      .cls-3 {
        clip-path: url(#clippath);
      }
    </style>
    <clipPath id="clippath">
      <rect class="cls-1" x="209.32" width="1475.66" height="578.99"/>
    </clipPath>
    <clipPath id="clippath-1">
      <rect class="cls-1" x="209.31" y="966.01" width="1475.66" height="578.99"/>
    </clipPath>
  </defs>
  <g id="Layer_1-2" data-name="Layer 1">
    <g>
      <path d="M716.49,578.53c-.46-2.09-.92-4.19-1.37-6.34-1.55-7.35-3-14.64-4.29-21.85-.12.79-.24,1.57-.35,2.37-.78,5.31-1.5,10.79-2.16,16.39.36,1.75.72,3.5,1.09,5.26.3,1.4.59,2.78.89,4.17h6.2-.01Z"/>
      <path d="M768.6,490.88c-1.03-3.06-2.12-5.96-3.25-8.74,1.21,4.68,2.49,10.35,3.72,16.89.32-1.31.64-2.57.96-3.78-.47-1.49-.94-2.95-1.43-4.37Z"/>
      <path d="M685.66,559.25c0,.93.01,1.86.02,2.8.56,4.33,1.08,8.74,1.54,13.23-.47-5.42-.99-10.77-1.56-16.03h0Z"/>
      <path d="M610.1,578.53c-.19-7.86-.45-15.4-.83-22.44-.3-4.16-.64-8.05-1-11.65.13,11.04-.13,22.46-.8,34.09h2.63Z"/>
      <path d="M675.62,578.53c-.03-1.21-.06-2.41-.08-3.62,0-.34,0-.68-.01-1.01-.98-10.08-2.17-19.81-3.53-29.06-2.34-16.07-5.07-30.71-7.7-43.52.26,9.99.46,21,.64,32.77.21,13.9.39,28.85.69,44.46h9.99v-.02Z"/>
      <path d="M795.79,578.53h6.43v-.91c-.02-1.95-.09-3.95-.15-5.93-.36-12.18-1.35-23.87-3.05-34.58-1.69-10.73-4.1-20.44-7.02-28.92-2.65-7.88-5.74-14.68-8.87-20.28-1.79-3.22-3.59-6.05-5.34-8.53-.12,1.19-.27,2.53-.46,4.03-.06.46-.12.94-.18,1.43,4.09,10.45,7.53,22.54,9.96,35.81,2.47,13.5,3.93,28.16,4.35,43.22.06,2.44.09,4.91.09,7.33.01,2.47,0,4.91-.03,7.33h4.27Z"/>
      <path d="M865.56,555.51c-1.62,7.49-3.35,15.2-5.08,23.02h1.91c1.04-4.53,2.08-8.97,3.11-13.3.03-3.28.05-6.52.07-9.72h0Z"/>
      <path d="M770.98,471.37c1.29,2.46,2.56,5.07,3.78,7.81.34-1,.67-1.88.96-2.63-.56-.74-1.11-1.45-1.65-2.11-1.12-1.09-2.15-2.11-3.1-3.07h0Z"/>
      <path d="M773.73,508.92c-.04.25-.07.5-.11.76-.43,3-.87,6.16-1.32,9.44.88,6.51,1.69,13.5,2.39,20.88,1.13,11.95,1.92,24.96,2.42,38.53h3.36c.01-2.36.01-4.72-.01-7.11-.02-2.28-.09-4.58-.17-6.89-.41-14.13-1.58-27.69-3.54-40.12-.86-5.39-1.88-10.56-3.02-15.49h0Z"/>
      <path d="M595.67,531.66c-.22-11.42-.81-22.33-1.63-32.58-.51,3.56-1.07,7.39-1.65,11.48-1.79,12.49-3.82,27.31-5.36,43.85-.71,7.69-1.31,15.77-1.73,24.12h9.33c1-16.23,1.32-32,1.04-46.87h0Z"/>
      <path d="M357.58,541.24c1.83,10.56,3.43,21.85,4.64,33.62-1.26-14.53-2.9-28.52-4.81-41.66-.63-4.34-1.29-8.58-1.96-12.73-.43,1.03-.87,2.06-1.29,3.1,1.2,5.65,2.35,11.53,3.42,17.67h0Z"/>
      <path d="M335.65,578.53h10.44c-.92-8.87-1.99-17.47-3.16-25.76-2.6,7.29-5.07,14.65-7.42,22.06.05,1.23.1,2.46.13,3.7h.01Z"/>
      <path d="M384.46,574.36c.29,1.4.58,2.78.88,4.17h6.21c-.47-2.09-.92-4.19-1.38-6.34-1.55-7.35-3-14.64-4.29-21.85-.12.79-.24,1.57-.35,2.37-.77,5.3-1.49,10.77-2.15,16.36.36,1.76.72,3.52,1.1,5.29h-.02Z"/>
      <path d="M373.64,494.29c.08,5.6.38,11.64.9,17.92.62,7.64,1.6,15.71,2.86,24.11,1.24-6.15,2.54-12.03,3.88-17.6-.8-7.59-1.36-14.98-1.67-22.1-.34-7.82-.34-15.34-.04-22.31.08-1.87.18-3.7.3-5.5-2.04,3.85-4.03,7.73-5.99,11.62-.2,4.29-.3,8.9-.24,13.85h0Z"/>
      <path d="M448.6,482.88c-1.85-2.82-3.66-5.26-5.33-7.33-1.13-1.09-2.17-2.12-3.12-3.09,2.08,3.96,4.1,8.29,5.98,13,.32.82.63,1.66.95,2.5.53-1.86,1.04-3.55,1.52-5.07h0Z"/>
      <path d="M941.93,554.98c-.4,7.38-.67,15.29-.86,23.56h2.72c-.72-12.01-.99-23.8-.86-35.2-.36,3.6-.7,7.49-1,11.64Z"/>
      <path d="M435.02,484.45c-2.38-6.01-4.95-11.37-7.53-16.01-.42-.75-.84-1.48-1.25-2.2.42,4.67.78,10.5,1.06,17.31,3.26,5.19,6.46,11.29,9.36,18.24-.6-6.62-1.17-12.44-1.64-17.34h0Z"/>
      <path d="M471.4,578.53c-.04-1.89-.09-3.82-.15-5.74-.36-12.18-1.36-23.87-3.07-34.58-1.69-10.73-4.08-20.44-7-28.92-2.67-7.88-5.76-14.68-8.87-20.28-.18-.33-.37-.64-.55-.96-.39,2.84-.85,6.06-1.36,9.61,2.31,7.46,4.31,15.53,5.88,24.09,2.47,13.5,3.93,28.16,4.33,43.22.08,2.44.09,4.91.11,7.33.01,2.1,0,4.17-.03,6.23h10.71Z"/>
      <path d="M427.96,522.27c1.72,9.98,3.31,21.68,4.52,34.64.3,3.23.58,6.54.84,9.91.53-7.07,1.23-13.87,2.04-20.34.36-2.84.75-5.6,1.15-8.31-1.86-10.28-4.27-19.69-7.13-28.05-.5-1.48-1.02-2.9-1.54-4.31.06,5.21.1,10.72.13,16.45h0Z"/>
      <path d="M417.65,485.64c.33-.15.81.4,1.4,1.6.01-.15.02-.31.03-.46-3.44-6.12-6.9-10.98-9.96-14.78-2.55-2.47-4.7-4.66-6.4-6.52-.98,4.93-2.42,11.27-4.11,18.79-2.05,9.14-4.49,20.13-6.94,32.59.57,4.2,1.22,8.47,1.93,12.82,1.26,7.72,2.75,15.71,4.36,23.86.12-5.28.29-10.39.47-15.3.47-12.24,1.07-23.22,1.69-32.41.64-9.19,1.28-16.58,1.92-21.73.66-5.13,1.32-8.04,2.03-8.04.37,0,.74.79,1.09,2.28.59-3.71,1.19-5.77,1.83-5.77.79,0,1.58,3.29,2.24,9.14.66,5.87,1.19,14.35,1.52,24.83.34,10.46.45,22.89.51,36.64.04,11.05.06,22.95.17,35.35h5.03c-.04-1.66-.09-3.31-.11-4.97-.02-.52-.04-1.07-.04-1.62-.18-13.17.04-25.79.4-37.57-.41-5.59-.84-10.79-1.26-15.53-.85-9.44-1.66-17.1-2.09-22.48-.43-5.35-.49-8.48.15-8.75.62-.27,1.86,2.31,3.41,7.33.23.73.46,1.53.7,2.36-.05-.62-.1-1.22-.15-1.79-.47-6.06-.53-9.58.17-9.88h0Z"/>
      <path d="M1511.24,577.43c-.03-1.21-.06-2.41-.08-3.62,0-.34,0-.68-.01-1.01-.98-10.08-2.17-19.81-3.53-29.06-2.34-16.07-5.07-30.71-7.7-43.52.26,9.99.47,21,.64,32.77.21,13.9.39,28.85.69,44.46h9.99v-.02Z"/>
      <path d="M1445.72,577.43c-.19-7.87-.45-15.41-.83-22.46-.3-4.15-.64-8.04-1-11.64.13,11.04-.13,22.46-.8,34.09h2.63Z"/>
      <path d="M1537.97,535.23c1.06-5.27,2.17-10.33,3.3-15.19-2.14-5.1-4.34-10.17-6.61-15.2.12,2.06.26,4.14.44,6.26.62,7.65,1.6,15.72,2.87,24.12h0Z"/>
      <path d="M1431.29,530.56c-.22-11.42-.81-22.33-1.63-32.58-.51,3.56-1.07,7.39-1.65,11.48-1.79,12.49-3.82,27.3-5.36,43.85-.71,7.69-1.31,15.77-1.73,24.12h9.33c1-16.23,1.32-32,1.04-46.87h0Z"/>
      <path d="M1524.71,491.81c.1-2.46.25-4.83.42-7.16-2.93-5.94-5.95-11.82-9.05-17.65.33,1.13.66,2.28.99,3.44.1-.13.21-.2.31-.2.72,0,1.41,2.91,2,8.1.03.25.05.53.08.79.32,1.22.65,2.43.97,3.68,1.39,5.33,2.76,10.95,4.09,16.81.03-2.66.08-5.28.19-7.81h0Z"/>
      <path d="M1546.09,551.61c-.78,5.31-1.5,10.79-2.16,16.39.36,1.75.72,3.5,1.09,5.26.3,1.4.59,2.78.89,4.17h6.2c-.46-2.09-.92-4.19-1.37-6.34-1.55-7.35-3-14.64-4.29-21.85-.12.79-.24,1.57-.35,2.37h0Z"/>
      <path d="M1522.83,574.18c-.47-5.42-.99-10.77-1.56-16.02,0,.93.01,1.86.02,2.8.56,4.33,1.08,8.74,1.54,13.23h0Z"/>
      <path d="M388.64,456.44c-.32,5.54-.47,11.61-.38,18.11.07,5.08.3,10.46.68,16.05,1.12-3.63,2.22-7.02,3.29-10.15,2.76-8.14,5.21-14.49,7.14-19.02-.79-1.14-1.16-1.95-1.04-2.39.14-.47.86-.48,2.1-.06.6-1.34,1.13-2.45,1.57-3.31.32-.66.6-1.1.81-1.45.15-.33.32-.38.43-.47.11-.11.19-.25.3-.27.09-.03.24.03.36.27.09.22.15.66.17.99.06.55.06,1.26,0,2.09-.07.98-.23,2.2-.44,3.57,2.18,1.11,4.98,2.73,8.37,4.85,2.53,2.15,5.28,4.91,8.12,8.33.37-4.22.75-7.85,1.13-10.82.17-1.33.33-2.51.5-3.57-1.64-2.38-3.24-4.49-4.74-6.36-7.3-7.11-11.48-11.96-11.09-13.31.4-1.37,5.38.96,14.04,6.37,3.95,3.38,8.51,8.23,13.06,14.76.72,1.04,1.45,2.14,2.17,3.26,1.89.53,5.51,2.46,10.61,5.66,1.76,1.49,3.65,3.33,5.6,5.52.61-1.33,1.07-1.96,1.36-1.81.35.17.42,1.46.27,3.72,1.33,1.6,2.68,3.36,4.04,5.31,3.93,5.65,7.87,12.82,11.29,21.38,3.61,9.11,6.63,19.7,8.75,31.31.37,2.02.7,4.07,1.02,6.15-.02-1.92-.04-3.84-.08-5.74-.38-19.79-1.73-38.23-3.52-54.67-1.81-16.41-4.05-30.79-6.14-42.75-2.09-11.94-3.99-21.46-5.16-28.1-1.17-6.67-1.6-10.48-.85-10.98.73-.49,2.58,2.33,5.14,8.29,2.56,5.93,5.82,14.98,9.17,26.78,1.44,5.12,2.89,10.76,4.29,16.88-.21-1.94-.42-3.87-.64-5.77-2.24-19.21-5.03-36.03-7.62-50-2.58-13.97-4.93-25.11-6.38-32.88-1.45-7.79-2-12.24-1.07-12.84.94-.58,3.24,2.74,6.4,9.69,3.16,6.94,7.23,17.51,11.37,31.34s8.34,30.93,11.76,50.77c3.43,19.87,6.06,42.43,7.12,66.85.88,20.8.7,42.86-.79,65.53-.11,1.68-.23,3.33-.35,4.99h3.55c1-16.23,1.32-32,1.04-46.87-.34-17.51-1.52-33.84-3.12-48.38s-3.58-27.28-5.44-37.84c-1.84-10.59-3.52-19.02-4.56-24.89-1.02-5.9-1.41-9.28-.75-9.71.66-.44,2.3,2.06,4.56,7.33,2.26,5.24,5.16,13.25,8.11,23.71,2.96,10.48,5.95,23.44,8.4,38.45,2.45,15.04,4.31,32.11,5.06,50.58.26,6.48.38,13.13.37,19.89,2.01-8.68,3.85-16.91,5.43-24.64,1.28-6.26,2.39-12.16,3.29-17.65.88-5.49,1.58-10.56,2.09-15.23.51-4.58.83-8.75,1.05-12.4.21-3.65.3-6.75.38-9.3.06-2.58.11-4.61.23-6.01s.28-2.17.58-2.28c.3-.11.72.49,1.19,1.78.47,1.26,1,3.27,1.49,5.9s.92,5.9,1.22,9.8c.28,3.9.41,8.4.34,13.36-.07,4.01-.28,8.34-.63,12.94,1.2-5.91,2.24-11.53,3.12-16.75.92-5.65,1.62-10.87,2.15-15.64.53-4.72.87-9,1.07-12.76.23-3.73.32-6.92.4-9.55.06-2.63.13-4.75.24-6.17.11-1.43.28-2.22.58-2.33.3-.08.73.52,1.22,1.84.47,1.32,1.02,3.35,1.52,6.06.51,2.69.94,6.06,1.24,10.07.32,4.01.45,8.62.36,13.69-.09,5.16-.38,10.84-.94,16.9s-1.37,12.57-2.39,19.32c-1.75,11.58-4.1,24.07-6.85,37.21-2,9.52-4.23,19.45-6.47,29.58h1.9c1.94-8.43,3.9-16.52,5.72-24.23,2.64-11.06,4.99-21.38,6.93-30.82,1.13-5.54,2.11-10.76,2.9-15.61.81-4.86,1.41-9.36,1.86-13.47.45-4.09.73-7.77.92-11,.19-3.21.28-5.96.34-8.23.06-2.28.11-4.09.21-5.32.09-1.23.25-1.92.51-2s.64.44,1.05,1.56c.41,1.13.88,2.91,1.32,5.24.43,2.33.81,5.21,1.07,8.67.08,1.02.14,2.09.19,3.19,1.92-6.56,3.82-12.55,5.61-17.87,3.22-9.47,6.08-16.79,8.28-21.95,1.11-2.61,2.03-4.61,2.75-6.01.38-.74.7-1.26.94-1.67.17-.36.36-.41.49-.52.13-.11.21-.25.32-.3.13-.03.28.03.41.3.11.27.17.77.19,1.13.08.63.08,1.43,0,2.36-.13,1.84-.51,4.31-1.05,7.27-1.07,5.85-2.9,13.91-5.1,23.71-4.35,19.37-10.24,45.97-14.81,77.33-1.32,9.05-2.5,18.51-3.51,28.27h10.44c.45-15.45,1.71-30.07,3.4-43.41,2.22-17.54,5.12-32.96,7.96-45.66,2.84-12.68,5.61-22.64,7.77-29.39,2.18-6.72,3.75-10.26,4.46-9.91.7.36.45,4.53-.45,11.77-.92,7.27-2.48,17.65-4.31,30.46-.82,5.75-1.69,12.01-2.55,18.67.28-1.33.57-2.64.85-3.91,2.45-10.95,4.84-19.54,6.72-25.33,1.86-5.82,3.22-8.86,3.82-8.56.62.3.41,3.9-.38,10.15-.79,6.28-2.15,15.23-3.73,26.26-.9,6.38-1.88,13.47-2.81,21.12,1.46-8.45,3.02-16.19,4.56-23.1,2.57-11.49,5.07-20.66,7.12-27.16-1.54-13.4-3.38-25.21-5.12-35.1-1.84-10.59-3.52-19.02-4.56-24.89-1.02-5.9-1.41-9.28-.75-9.71.66-.44,2.3,2.06,4.56,7.33,2.26,5.24,5.16,13.25,8.11,23.71,2.96,10.48,5.95,23.44,8.4,38.45,1.11,6.83,2.09,14.1,2.92,21.71.59.96,1.31,2.49,2.13,4.58,1.56,4.06,3.46,10.18,5.21,18.08.47,2.16.94,4.47,1.38,6.89-.48-6.94-1-13.33-1.51-19.04-.85-9.44-1.66-17.1-2.09-22.45-.43-5.38-.49-8.51.15-8.78.62-.27,1.86,2.31,3.41,7.33,1.54,5.02,3.41,12.51,5.16,21.98.77,4.19,1.51,8.78,2.2,13.7-.3-3.73-.56-7.42-.71-11.01-.28-6.75-.28-13.2-.02-19.24.24-6.04.75-11.64,1.43-16.71.75-5.54,1.73-10.46,2.77-14.65,1.02-4.17,2.11-7.63,3.11-10.37s1.92-4.77,2.64-6.06c.64-1.13,1.11-1.67,1.41-1.65.04,0,.09,0,.11.03.28.19.3,1.12.13,2.72-.17,1.59-.53,3.87-1,6.75-.92,5.79-2.18,14.13-2.79,24.56-.26,4.77-.41,9.99-.32,15.61.08,5.6.38,11.64.88,17.92.77,9.3,2.01,19.21,3.73,29.61,1.01,6.22,2.2,12.65,3.49,19.2-.03-10.71.1-20.97.31-30.62.36-15.45.92-29.36,1.54-41,.64-11.64,1.32-21.02,2.01-27.52.72-6.5,1.49-10.1,2.28-10.1.25,0,.5.38.75,1.1.44-6.29.89-11.64,1.36-15.92.83-7.55,1.71-11.72,2.64-11.72s1.81,4.2,2.58,11.77,1.39,18.52,1.88,32.08c.49,13.53.83,29.67,1.09,47.47.04,2.36.07,4.76.1,7.19.4-13.39.92-25.56,1.48-36.08.49-9.04,1-16.88,1.53-23.28-.75-3.44-1.38-6.47-1.85-9.02-.49-2.61-.83-4.8-.94-6.42-.06-.82-.06-1.54,0-2.09.02-.33.08-.77.19-1.02.09-.22.24-.27.36-.25.09.03.17.16.28.25.11.11.28.17.43.47.23.36.49.82.83,1.48.54,1.05,1.22,2.51,2,4.33.64-4.52,1.31-6.97,2.01-6.97.9,0,1.77,4.09,2.52,11.47.26,2.55.5,5.49.73,8.78.81,2.21,1.64,4.57,2.51,7.13,2.79,8.26,5.83,18.28,8.83,29.8.98,3.77,1.95,7.71,2.9,11.8.19-3.46.39-6.77.59-9.89-3.6-19.76-7.39-36.85-10.45-50.47-2.26-10.07-4.14-18.36-5.25-24.37-.56-3.02-.94-5.57-1.07-7.46-.08-.96-.08-1.78,0-2.42.02-.36.08-.88.21-1.15.11-.27.28-.36.41-.3.11.03.19.19.32.3s.34.16.51.55c.26.41.58.93.96,1.7.73,1.45,1.68,3.48,2.82,6.17,2.28,5.3,5.21,12.82,8.51,22.56,2.19,6.47,4.52,13.91,6.88,22.19.1-.13.21-.2.31-.2.72,0,1.41,2.91,2,8.1.03.25.06.53.08.8.32,1.22.65,2.43.97,3.68,1.39,5.33,2.76,10.95,4.09,16.81.03-2.66.08-5.28.19-7.81.28-6.81.85-13.12,1.62-18.85.87-6.26,1.96-11.83,3.12-16.55,1.17-4.75,2.39-8.64,3.52-11.75s2.16-5.41,2.97-6.83c.72-1.26,1.26-1.89,1.6-1.89.04,0,.09.03.13.05.32.22.34,1.26.13,3.07-.14,1.37-.42,3.21-.77,5.47.44-.69.8-1.04,1.04-1.02.04,0,.08,0,.11.03.28.19.3,1.12.13,2.72-.19,1.59-.55,3.87-1,6.75-.92,5.79-2.2,14.13-2.79,24.56-.28,4.77-.41,9.99-.34,15.61.09,5.6.4,11.64.9,17.92.62,7.65,1.6,15.72,2.87,24.12,1.24-6.15,2.54-12.04,3.88-17.62-.81-7.59-1.37-14.98-1.69-22.09-.34-7.82-.32-15.34-.02-22.31.28-7,.87-13.5,1.66-19.4.88-6.42,2.01-12.13,3.2-16.99,1.2-4.86,2.45-8.86,3.61-12.05s2.22-5.54,3.07-7.03c.73-1.29,1.28-1.92,1.62-1.92.06,0,.11.03.15.06.32.22.34,1.26.13,3.13s-.6,4.5-1.15,7.85c-1.05,6.7-2.54,16.38-3.22,28.48-.32,5.54-.49,11.61-.4,18.11.07,5.08.31,10.46.7,16.05,1.12-3.63,2.21-7.02,3.27-10.15,2.84-8.4,5.38-14.9,7.32-19.46,1-2.31,1.81-4.06,2.45-5.32.34-.66.6-1.1.83-1.45.15-.33.32-.38.43-.47.11-.11.17-.25.28-.27.11-.03.26.03.36.27.11.22.15.66.19.99.06.55.06,1.26,0,2.09-.11,1.62-.45,3.81-.94,6.42-.96,5.19-2.58,12.32-4.52,21.02-2.05,9.14-4.49,20.13-6.94,32.61.58,4.19,1.22,8.46,1.93,12.81,1.26,7.72,2.74,15.7,4.35,23.84.12-5.27.28-10.38.47-15.28.47-12.24,1.07-23.22,1.71-32.41.62-9.19,1.28-16.58,1.92-21.73.66-5.13,1.32-8.04,2.03-8.04.36,0,.73.8,1.08,2.31.59-3.73,1.19-5.79,1.81-5.79.81,0,1.6,3.29,2.26,9.14.66,5.87,1.19,14.35,1.52,24.83.34,10.46.45,22.89.51,36.64.05,11.05.04,22.95.15,35.35h5.02c-.04-1.66-.09-3.31-.11-4.97,0-.52-.02-1.07-.04-1.62-.17-13.17.04-25.79.41-37.57-.41-5.59-.83-10.79-1.26-15.53-.85-9.44-1.68-17.1-2.11-22.48-.43-5.35-.47-8.48.15-8.75.64-.27,1.86,2.31,3.43,7.33.23.73.46,1.53.7,2.36-.05-.62-.1-1.22-.15-1.79-.49-6.06-.55-9.58.17-9.88.33-.15.81.4,1.4,1.6.72-10.32,1.45-18.66,2.19-24.49.75-5.98,1.52-9.33,2.33-9.33s1.64,3.35,2.31,9.39c.68,6.01,1.22,14.71,1.56,25.47.33,9.84.45,21.36.51,34.07,1.72,9.96,3.29,21.64,4.52,34.56.3,3.21.58,6.51.83,9.86.52-7.05,1.22-13.84,2.05-20.29.94-7.47,2.03-14.5,3.19-21.02-.57-8.17-1.17-15.7-1.78-22.42-.98-10.98-1.94-19.84-2.43-26.07-.32-3.91-.46-6.78-.34-8.46-.21-.39-.42-.79-.63-1.18-3.61-6.5-7.28-11.61-10.5-15.61-7.28-7.11-11.46-11.96-11.09-13.31.4-1.37,5.4.96,14.04,6.37,3.97,3.38,8.51,8.23,13.06,14.76.72,1.04,1.45,2.13,2.17,3.26,1.89.53,5.52,2.46,10.63,5.66,3.43,2.91,7.32,7.08,11.26,12.73,3.93,5.65,7.87,12.82,11.29,21.38,3.61,9.11,6.63,19.7,8.75,31.31.37,2,.7,4.04,1.02,6.09-.02-1.9-.04-3.8-.08-5.68-.38-19.79-1.71-38.23-3.52-54.66-1.81-16.41-4.05-30.79-6.14-42.75-2.09-11.94-3.99-21.46-5.14-28.1-1.17-6.67-1.6-10.48-.87-10.98.75-.49,2.6,2.33,5.14,8.29,2.56,5.93,5.83,14.98,9.17,26.78,2.91,10.33,5.86,22.8,8.41,37.09-.3-3.15-.61-6.25-.94-9.27-1.84-16.88-4.16-31.64-6.31-43.94-2.15-12.27-4.08-22.04-5.27-28.87-1.2-6.83-1.66-10.73-.88-11.25.75-.52,2.65,2.39,5.27,8.51,2.64,6.09,5.99,15.37,9.41,27.5,3.43,12.16,6.91,27.17,9.73,44.59,2.84,17.43,5.03,37.27,5.89,58.7.73,18.25.56,37.65-.64,57.55-.11,1.69-.23,3.37-.35,5.05h2.16c.02-.28.04-.55.06-.83,1.02-16.33,1.34-32.19,1.04-47.15-.32-17.51-1.51-33.84-3.11-48.38s-3.6-27.28-5.44-37.84c-1.84-10.59-3.52-19.02-4.56-24.89-1.02-5.9-1.41-9.28-.75-9.71s2.3,2.06,4.56,7.33c2.26,5.24,5.16,13.25,8.11,23.71,2.96,10.48,5.93,23.44,8.38,38.45,2.45,15.04,4.33,32.11,5.08,50.58.32,7.99.44,16.22.35,24.64,2.46-10.44,4.68-20.25,6.54-29.38,1.26-6.26,2.37-12.16,3.27-17.65.9-5.49,1.58-10.57,2.09-15.23.51-4.58.85-8.75,1.05-12.4.23-3.65.32-6.75.38-9.3.08-2.58.13-4.61.24-6.01.09-1.4.26-2.17.56-2.28.3-.11.72.49,1.19,1.78.47,1.26,1,3.27,1.49,5.9s.92,5.9,1.22,9.8.43,8.4.34,13.36c-.08,4.05-.28,8.43-.64,13.08.18-.91.36-1.81.54-2.7.03-1.05.05-2.09.09-3.1.3-9.28.77-16.77,1.36-21.95s1.28-8.1,2-8.1c.46,0,.89,1.19,1.31,3.38v-.06c.51-4.72.85-9,1.07-12.76.23-3.73.3-6.92.38-9.55s.13-4.75.24-6.17c.11-1.43.28-2.22.58-2.33.32-.08.73.52,1.22,1.84s1.04,3.35,1.52,6.06c.51,2.69.96,6.06,1.26,10.07s.43,8.62.34,13.69c-.08,5.16-.38,10.84-.94,16.9-.55,6.06-1.35,12.57-2.39,19.32.25,4.45.5,9.19.72,14.19.17-.82.34-1.64.5-2.44,1.13-5.54,2.11-10.76,2.92-15.61.79-4.86,1.39-9.36,1.84-13.47.45-4.09.75-7.77.94-11,.19-3.21.26-5.95.32-8.23s.11-4.09.21-5.32c.11-1.23.24-1.92.51-2,.26-.08.64.44,1.05,1.56s.88,2.91,1.32,5.24c.43,2.33.83,5.21,1.09,8.67.26,3.46.38,7.41.28,11.83-.06,4.45-.32,9.33-.79,14.54-.49,5.24-1.19,10.84-2.07,16.66-1.52,9.96-3.54,20.75-5.91,32.08-.4,1.91-.82,3.85-1.24,5.8,0,3.06,0,6.15-.04,9.29-.02.47-.04.93-.04,1.4-.02,1.59-.07,3.15-.11,4.72h10c.31-16.01.49-31.33.7-45.56.26-17.34.58-33.04,1.05-46.24.47-13.17,1.09-23.82,1.83-31.2.75-7.38,1.64-11.47,2.52-11.47s1.75,4.06,2.56,11.42c.81,7.33,1.56,17.95,2.28,31.09.56,10.49,1.09,22.6,1.48,35.93.03-2.37.07-4.72.1-7.03.26-17.81.6-33.95,1.09-47.48.47-13.56,1.09-24.51,1.86-32.08.77-7.57,1.68-11.77,2.6-11.77s1.79,4.17,2.62,11.72c.47,4.28.93,9.64,1.37,15.95.25-.74.5-1.13.76-1.13.81,0,1.56,3.6,2.28,10.1.72,6.5,1.39,15.89,2.01,27.52.62,11.64,1.19,25.55,1.54,41,.22,9.63.35,19.86.32,30.54,1.28-6.52,2.46-12.93,3.48-19.13,1.69-10.4,2.96-20.31,3.71-29.61.51-6.28.83-12.32.9-17.92.08-5.63-.06-10.84-.34-15.61-.58-10.43-1.86-18.77-2.79-24.56-.45-2.88-.81-5.16-.98-6.75s-.17-2.52.11-2.72c.04-.03.08-.03.13-.03.28-.03.77.52,1.39,1.65.73,1.29,1.64,3.32,2.63,6.06,1.02,2.74,2.09,6.2,3.12,10.37,1.04,4.2,2,9.11,2.75,14.65.7,5.08,1.19,10.67,1.45,16.71.24,6.04.26,12.49-.04,19.24-.16,3.64-.42,7.39-.73,11.18.7-4.98,1.45-9.64,2.23-13.87,1.73-9.47,3.6-16.96,5.16-21.98,1.54-5.02,2.79-7.6,3.41-7.33.64.27.58,3.4.15,8.78-.43,5.35-1.24,13.01-2.09,22.45-.53,5.75-1.05,12.2-1.53,19.2.46-2.47.93-4.83,1.42-7.04,1.73-7.9,3.63-14.02,5.19-18.08.83-2.11,1.55-3.65,2.14-4.6.82-7.6,1.81-14.86,2.92-21.69,2.45-15.01,5.42-27.96,8.38-38.45,2.96-10.46,5.85-18.47,8.11-23.71,2.26-5.27,3.9-7.77,4.56-7.33s.26,3.81-.75,9.71c-1.04,5.87-2.71,14.3-4.56,24.89-1.73,9.89-3.58,21.7-5.12,35.1,2.05,6.5,4.55,15.67,7.12,27.16,1.54,6.87,3.09,14.54,4.53,22.93-.92-7.59-1.9-14.62-2.8-20.95-1.56-11.03-2.92-19.98-3.71-26.26-.79-6.26-1-9.85-.4-10.15.62-.3,1.98,2.74,3.84,8.56,1.86,5.79,4.25,14.38,6.72,25.33.29,1.3.58,2.63.87,3.99-.86-6.69-1.73-12.98-2.56-18.75-1.83-12.82-3.39-23.19-4.31-30.46-.9-7.24-1.15-11.42-.45-11.77.71-.36,2.28,3.18,4.46,9.91,2.16,6.75,4.93,16.71,7.77,29.39,2.84,12.71,5.76,28.13,7.96,45.66,1.73,13.66,3.01,28.66,3.43,44.51h10.53c-1.04-10.15-2.26-19.98-3.63-29.37-4.57-31.37-10.47-57.96-14.81-77.33-2.18-9.8-4.03-17.86-5.1-23.71-.55-2.96-.92-5.43-1.05-7.27-.08-.93-.06-1.73,0-2.36.02-.36.08-.85.21-1.12.11-.27.28-.33.4-.3.13.05.21.19.32.3.13.11.34.16.49.52.26.41.56.93.94,1.67.72,1.4,1.64,3.4,2.75,6.01.64,1.51,1.35,3.23,2.1,5.11-.16-1.07-.27-2.02-.34-2.83-.06-.82-.04-1.54,0-2.09.04-.33.08-.77.19-1.02.11-.22.24-.27.36-.25.11.03.17.16.28.25.11.11.3.16.43.47.23.36.51.82.83,1.48.64,1.23,1.45,3.02,2.45,5.32,1.94,4.56,4.48,11.06,7.32,19.43,2.79,8.26,5.83,18.28,8.83,29.8,2.99,11.53,5.91,24.56,8.41,38.89,1.83,10.56,3.43,21.85,4.64,33.62-1.26-14.53-2.9-28.52-4.81-41.66-4.69-32.22-10.75-59.52-15.21-79.42-2.26-10.07-4.12-18.36-5.25-24.37-.55-3.02-.94-5.57-1.07-7.46-.08-.96-.06-1.78,0-2.41.04-.36.09-.88.21-1.15.11-.27.28-.36.41-.3.13.03.21.19.34.3s.32.17.49.55c.26.41.58.93.96,1.7.75,1.45,1.69,3.48,2.84,6.17,2.26,5.3,5.19,12.82,8.49,22.56,3.24,9.55,6.78,21.19,10.26,34.55,1.38,5.33,2.74,10.95,4.07,16.81.02-2.66.08-5.28.18-7.81.3-6.81.85-13.12,1.64-18.85.85-6.26,1.94-11.83,3.11-16.55,1.17-4.75,2.39-8.64,3.52-11.75,1.13-3.1,2.16-5.41,2.97-6.83.72-1.26,1.26-1.89,1.6-1.89.06,0,.09.03.13.06.32.22.34,1.26.13,3.07-.14,1.37-.41,3.21-.77,5.46.45-.69.79-1.04,1.03-1.02.04,0,.09,0,.13.03.26.19.28,1.12.11,2.72s-.53,3.87-1,6.75c-.9,5.79-2.18,14.13-2.79,24.56-.26,4.77-.4,9.99-.32,15.61.08,5.6.38,11.64.9,17.92.62,7.64,1.6,15.71,2.86,24.11,1.24-6.15,2.54-12.03,3.88-17.6-.8-7.59-1.36-14.98-1.67-22.1-.34-7.82-.34-15.34-.04-22.31.3-7,.87-13.5,1.68-19.4.87-6.42,2-12.13,3.2-16.99,1.19-4.86,2.45-8.86,3.61-12.05,1.15-3.18,2.22-5.54,3.05-7.02.73-1.29,1.3-1.92,1.64-1.92.06,0,.09.03.13.05.32.22.34,1.26.15,3.13-.21,1.87-.62,4.5-1.15,7.85-1.07,6.7-2.56,16.38-3.24,28.48-.32,5.54-.47,11.61-.38,18.11.07,5.08.3,10.46.68,16.05,1.12-3.63,2.22-7.02,3.29-10.15,2.76-8.14,5.21-14.49,7.14-19.02-.79-1.14-1.16-1.95-1.04-2.39.14-.47.86-.48,2.1-.06.6-1.34,1.13-2.45,1.57-3.31.32-.66.6-1.1.81-1.45.15-.33.32-.38.43-.47.11-.11.19-.25.3-.27.09-.03.24.03.36.27.09.22.15.66.17.99.06.55.06,1.26,0,2.09-.07.98-.23,2.2-.44,3.57,2.18,1.11,4.98,2.73,8.37,4.85,2.53,2.15,5.28,4.91,8.12,8.33.37-4.22.75-7.85,1.13-10.82.17-1.33.33-2.51.5-3.57-1.64-2.38-3.24-4.49-4.74-6.36-7.3-7.11-11.48-11.96-11.09-13.31.4-1.37,5.38.96,14.04,6.37,3.95,3.38,8.51,8.23,13.06,14.76.72,1.04,1.45,2.14,2.17,3.26,1.89.53,5.51,2.46,10.61,5.66,1.76,1.49,3.65,3.33,5.6,5.52.61-1.33,1.07-1.96,1.36-1.81.35.17.42,1.46.27,3.72,1.33,1.6,2.68,3.36,4.04,5.31,3.93,5.65,7.87,12.82,11.29,21.38,3.61,9.11,6.63,19.7,8.75,31.31.37,2.02.7,4.07,1.02,6.15-.02-1.92-.04-3.84-.08-5.74-.38-19.79-1.73-38.23-3.52-54.66-1.81-16.41-4.05-30.79-6.14-42.75-2.09-11.94-3.99-21.46-5.16-28.1-1.17-6.67-1.6-10.48-.85-10.98.73-.49,2.58,2.33,5.14,8.29,2.56,5.93,5.82,14.98,9.17,26.78,1.44,5.11,2.89,10.75,4.29,16.88-.21-1.94-.42-3.87-.64-5.76-2.24-19.21-5.03-36.03-7.62-50-2.58-13.97-4.93-25.11-6.38-32.88-1.45-7.79-2-12.24-1.07-12.84.94-.58,3.24,2.74,6.4,9.69,3.16,6.94,7.23,17.51,11.37,31.34s8.34,30.93,11.76,50.77c3.43,19.87,6.06,42.43,7.12,66.85.88,20.8.7,42.86-.79,65.53-.13,2.04-.28,4.07-.43,6.09h3.55c.02-.28.04-.55.06-.83,1.02-16.33,1.34-32.19,1.05-47.15-.34-17.51-1.52-33.84-3.12-48.38s-3.58-27.28-5.44-37.84c-1.84-10.59-3.52-19.02-4.56-24.89-1.02-5.9-1.41-9.28-.75-9.71s2.3,2.06,4.56,7.33c2.26,5.24,5.16,13.25,8.11,23.71,2.96,10.48,5.95,23.44,8.4,38.45,2.45,15.04,4.31,32.11,5.06,50.58.26,6.48.38,13.13.37,19.89,2.01-8.68,3.85-16.91,5.42-24.64,1.28-6.26,2.39-12.16,3.29-17.65.88-5.49,1.58-10.57,2.09-15.23.51-4.58.83-8.75,1.05-12.4.21-3.65.3-6.75.38-9.3.06-2.58.11-4.61.23-6.01.11-1.4.28-2.17.58-2.28.3-.11.72.49,1.19,1.78.47,1.26,1,3.27,1.49,5.9s.92,5.9,1.22,9.8c.28,3.9.41,8.4.34,13.36-.07,4.01-.28,8.34-.63,12.94,1.2-5.91,2.24-11.53,3.12-16.75.92-5.65,1.62-10.87,2.15-15.64.53-4.72.87-9,1.07-12.76.23-3.73.32-6.92.4-9.55.06-2.63.13-4.75.24-6.17.11-1.43.28-2.22.58-2.33.3-.08.73.52,1.22,1.84.47,1.32,1.02,3.35,1.52,6.06.51,2.69.94,6.06,1.24,10.07.32,4.01.45,8.62.36,13.69-.09,5.16-.38,10.84-.94,16.9-.56,6.06-1.37,12.57-2.39,19.32-1.75,11.58-4.1,24.07-6.85,37.21-2.08,9.87-4.39,20.17-6.71,30.68h1.89c2.03-8.82,4.07-17.29,5.97-25.33,2.63-11.06,4.99-21.38,6.93-30.82,1.13-5.54,2.11-10.76,2.9-15.61.81-4.86,1.41-9.36,1.86-13.47.45-4.09.73-7.77.92-11,.19-3.21.28-5.95.34-8.23.06-2.28.11-4.09.21-5.32s.24-1.92.51-2,.64.44,1.05,1.56.88,2.91,1.32,5.24c.43,2.33.81,5.21,1.07,8.67.08,1.02.14,2.09.19,3.19,1.92-6.56,3.82-12.55,5.61-17.87,3.22-9.47,6.08-16.79,8.28-21.95,1.11-2.61,2.03-4.61,2.75-6.01.38-.74.7-1.26.94-1.67.17-.36.36-.41.49-.52.13-.11.21-.25.32-.3.13-.03.28.03.41.3.11.27.17.77.19,1.12.08.63.08,1.43,0,2.36-.13,1.84-.51,4.31-1.05,7.27-1.07,5.85-2.9,13.91-5.1,23.71-4.35,19.37-10.24,45.97-14.81,77.33-1.37,9.39-2.59,19.21-3.63,29.37h10.53c.42-15.85,1.7-30.85,3.43-44.51,2.22-17.54,5.12-32.96,7.96-45.66,2.84-12.68,5.61-22.64,7.77-29.39,2.18-6.72,3.75-10.26,4.46-9.91.7.36.45,4.53-.45,11.77-.92,7.27-2.48,17.65-4.31,30.46-.82,5.75-1.69,12.01-2.55,18.67.28-1.33.57-2.64.85-3.9,2.45-10.95,4.84-19.54,6.72-25.33,1.86-5.82,3.22-8.86,3.82-8.56.62.3.41,3.9-.38,10.15-.79,6.28-2.15,15.23-3.73,26.26-.9,6.38-1.88,13.47-2.81,21.13,1.46-8.45,3.02-16.19,4.56-23.1,2.57-11.49,5.07-20.66,7.12-27.16-1.54-13.4-3.38-25.21-5.12-35.1-1.84-10.59-3.52-19.02-4.56-24.89-1.02-5.9-1.41-9.28-.75-9.71s2.3,2.06,4.56,7.33c2.26,5.24,5.16,13.25,8.11,23.71,2.96,10.48,5.95,23.44,8.4,38.45,1.11,6.83,2.09,14.1,2.91,21.71.59.96,1.31,2.49,2.13,4.58,1.56,4.06,3.46,10.18,5.21,18.08.47,2.16.94,4.47,1.38,6.88-.48-6.94-1-13.33-1.51-19.04-.85-9.44-1.66-17.1-2.09-22.45-.43-5.38-.49-8.51.15-8.78.62-.27,1.86,2.31,3.41,7.33s3.41,12.51,5.16,21.98c.77,4.19,1.51,8.78,2.2,13.7-.3-3.73-.56-7.42-.71-11.01-.28-6.75-.28-13.2-.02-19.24.25-6.04.75-11.64,1.43-16.71.75-5.54,1.73-10.46,2.77-14.65,1.02-4.17,2.11-7.63,3.11-10.37s1.92-4.77,2.64-6.06c.64-1.12,1.11-1.67,1.41-1.65.04,0,.09,0,.11.03.28.19.3,1.12.13,2.72s-.53,3.87-1,6.75c-.92,5.79-2.18,14.13-2.79,24.56-.26,4.77-.41,9.99-.32,15.61.08,5.6.38,11.64.88,17.92.77,9.3,2.01,19.21,3.73,29.61,1.01,6.22,2.2,12.65,3.49,19.2-.03-10.71.1-20.97.31-30.62.36-15.45.92-29.36,1.54-41,.64-11.64,1.32-21.02,2.01-27.52.72-6.5,1.49-10.1,2.28-10.1.25,0,.51.38.75,1.1.44-6.29.89-11.64,1.36-15.92.83-7.55,1.71-11.72,2.64-11.72s1.81,4.2,2.58,11.77c.77,7.57,1.39,18.52,1.88,32.08.49,13.53.83,29.67,1.09,47.48.04,2.37.07,4.77.1,7.19.4-13.39.92-25.56,1.48-36.09.49-9.04,1-16.88,1.53-23.28-.75-3.44-1.38-6.47-1.85-9.02-.49-2.61-.83-4.8-.94-6.42-.06-.82-.06-1.54,0-2.09.02-.33.08-.77.19-1.02.09-.22.24-.27.36-.25.09.03.17.16.28.25.11.11.28.16.43.47.23.36.49.82.83,1.48.54,1.05,1.22,2.51,2,4.33.64-4.52,1.31-6.97,2.01-6.97.9,0,1.77,4.09,2.52,11.47.26,2.55.5,5.49.73,8.78.81,2.21,1.64,4.57,2.51,7.13,2.79,8.26,5.83,18.28,8.83,29.8.98,3.77,1.95,7.71,2.9,11.8.19-3.46.39-6.77.59-9.89-3.6-19.76-7.39-36.85-10.45-50.47-2.26-10.07-4.14-18.36-5.25-24.37-.56-3.02-.94-5.57-1.07-7.46-.08-.96-.08-1.78,0-2.41.02-.36.08-.88.21-1.15.11-.27.28-.36.41-.3.11.03.19.19.32.3s.34.17.51.55c.26.41.58.93.96,1.7.73,1.45,1.68,3.48,2.82,6.17,2.28,5.3,5.21,12.82,8.51,22.56,2.19,6.47,4.52,13.91,6.88,22.19.1-.13.21-.2.31-.2.72,0,1.41,2.91,2,8.1.03.25.05.53.08.79.32,1.22.65,2.43.97,3.68,1.39,5.33,2.76,10.95,4.09,16.81.03-2.66.08-5.28.19-7.81.28-6.81.85-13.12,1.62-18.85.87-6.26,1.96-11.83,3.12-16.55,1.17-4.75,2.39-8.64,3.52-11.75s2.16-5.41,2.97-6.83c.71-1.26,1.26-1.89,1.6-1.89.04,0,.09.03.13.06.32.22.34,1.26.13,3.07-.14,1.37-.42,3.21-.77,5.47.44-.69.8-1.04,1.04-1.02.04,0,.08,0,.11.03.28.19.3,1.12.13,2.72-.19,1.59-.55,3.87-1,6.75-.92,5.79-2.2,14.13-2.79,24.56-.28,4.77-.41,9.99-.34,15.61.09,5.6.4,11.64.9,17.92.54,6.62,1.34,13.55,2.37,20.74.49-2.3.97-4.58,1.43-6.8,1.28-6.26,2.39-12.16,3.29-17.65.88-5.49,1.58-10.57,2.09-15.23.51-4.58.83-8.75,1.05-12.4.21-3.65.3-6.75.38-9.3.06-2.58.11-4.61.23-6.01.11-1.4.28-2.17.58-2.28.3-.11.71.49,1.19,1.78.47,1.26,1,3.27,1.49,5.9s.92,5.9,1.22,9.8c.28,3.9.41,8.4.34,13.36-.08,4.01-.28,8.34-.63,12.94,1.2-5.91,2.24-11.53,3.12-16.75.92-5.65,1.62-10.87,2.15-15.64.53-4.72.87-9,1.07-12.76.23-3.73.32-6.92.4-9.55.06-2.63.13-4.75.24-6.17.11-1.43.28-2.22.58-2.33.3-.08.73.52,1.22,1.84.47,1.32,1.02,3.35,1.52,6.06.51,2.69.94,6.06,1.24,10.07.32,4.01.45,8.62.36,13.69-.09,5.16-.38,10.84-.94,16.9-.56,6.06-1.37,12.57-2.39,19.32-1.75,11.58-4.1,24.07-6.85,37.21-1.92,9.14-4.05,18.65-6.2,28.36.09.41.17.82.26,1.23h1.37c1.94-8.43,3.89-16.52,5.72-24.23,2.64-11.06,4.99-21.38,6.93-30.82,1.13-5.54,2.11-10.76,2.9-15.61.81-4.86,1.41-9.36,1.86-13.47.45-4.09.73-7.77.92-11,.19-3.21.28-5.95.34-8.23s.11-4.09.21-5.32.24-1.92.51-2c.26-.08.64.44,1.05,1.56s.88,2.91,1.32,5.24.81,5.21,1.07,8.67c.08,1.02.14,2.09.19,3.19,1.92-6.56,3.82-12.55,5.61-17.87,3.22-9.47,6.08-16.79,8.28-21.95,1.11-2.61,2.03-4.61,2.75-6.01.38-.74.7-1.26.94-1.67.17-.36.36-.41.49-.52.13-.11.21-.25.32-.3.13-.03.28.03.41.3.11.27.17.77.19,1.12.08.63.08,1.43,0,2.36-.13,1.84-.51,4.31-1.05,7.27-1.07,5.85-2.9,13.91-5.1,23.71-4.35,19.37-10.24,45.97-14.81,77.33-1.32,9.05-2.5,18.51-3.51,28.27h10.44c.45-15.45,1.71-30.07,3.4-43.41,2.22-17.54,5.12-32.96,7.96-45.66,2.84-12.68,5.61-22.64,7.77-29.39,2.18-6.72,3.75-10.26,4.46-9.91.7.36.45,4.53-.45,11.77-.92,7.27-2.48,17.65-4.31,30.46-.82,5.75-1.69,12.01-2.55,18.67.28-1.33.57-2.64.85-3.91,2.45-10.95,4.84-19.54,6.72-25.33,1.86-5.82,3.22-8.86,3.82-8.56.62.3.41,3.9-.38,10.15-.79,6.28-2.15,15.23-3.73,26.26-.9,6.38-1.88,13.47-2.81,21.12,1.46-8.45,3.02-16.19,4.56-23.1,2.57-11.49,5.07-20.66,7.12-27.16-1.54-13.4-3.38-25.21-5.12-35.1-1.84-10.59-3.52-19.02-4.56-24.89-1.02-5.9-1.41-9.28-.75-9.71.66-.44,2.3,2.06,4.55,7.33,2.26,5.24,5.16,13.25,8.11,23.71,2.96,10.48,5.95,23.44,8.4,38.45,1.11,6.83,2.09,14.1,2.91,21.71.59.96,1.31,2.49,2.13,4.58,1.56,4.06,3.46,10.18,5.21,18.08.47,2.16.94,4.47,1.38,6.88-.48-6.94-1-13.33-1.51-19.04-.85-9.44-1.66-17.1-2.09-22.45-.43-5.38-.49-8.51.15-8.78.62-.27,1.86,2.31,3.41,7.33s3.41,12.51,5.16,21.98c.77,4.19,1.51,8.78,2.2,13.7-.3-3.73-.56-7.42-.71-11.01-.28-6.75-.28-13.2-.02-19.24.24-6.04.75-11.64,1.43-16.71.75-5.54,1.73-10.46,2.77-14.65,1.02-4.17,2.11-7.63,3.11-10.37s1.92-4.77,2.64-6.06c.64-1.12,1.11-1.67,1.41-1.65.04,0,.09,0,.11.03.28.19.3,1.12.13,2.72s-.53,3.87-1,6.75c-.92,5.79-2.18,14.13-2.79,24.56-.26,4.77-.41,9.99-.32,15.61.08,5.6.38,11.64.88,17.92.77,9.3,2.01,19.21,3.73,29.61,1.01,6.22,2.2,12.65,3.49,19.2-.03-10.71.1-20.97.31-30.62.36-15.45.92-29.36,1.54-41,.64-11.64,1.32-21.02,2.01-27.52.72-6.5,1.49-10.1,2.28-10.1.25,0,.5.38.75,1.1.44-6.29.89-11.64,1.36-15.92.83-7.55,1.71-11.72,2.64-11.72s1.81,4.2,2.58,11.77c.77,7.57,1.39,18.52,1.88,32.08.49,13.53.83,29.67,1.09,47.48.04,2.36.07,4.76.1,7.18.4-13.39.92-25.55,1.48-36.08.49-9.04,1-16.88,1.53-23.28-.75-3.44-1.38-6.47-1.85-9.02-.49-2.61-.83-4.8-.94-6.42-.06-.82-.06-1.54,0-2.09.02-.33.08-.77.19-1.02.09-.22.25-.27.36-.25.09.03.17.16.28.25.11.11.28.16.43.47.23.36.49.82.83,1.48.54,1.05,1.22,2.51,2,4.33.64-4.52,1.31-6.97,2.01-6.97.9,0,1.77,4.09,2.52,11.47.26,2.55.5,5.49.73,8.78.81,2.21,1.64,4.57,2.51,7.14,2.79,8.26,5.83,18.28,8.83,29.8.98,3.77,1.95,7.71,2.9,11.8.19-3.46.39-6.77.59-9.89-3.6-19.76-7.39-36.86-10.45-50.48-1.26-5.6-2.39-10.63-3.34-15.04-112.44-186.74-317.12-311.65-550.98-311.65s-449.14,131.47-559.54,326.3c-.1,1.35-.19,2.73-.27,4.15l.16-.18Z"/>
      <path d="M1341.43,558.15c0,.93.01,1.86.02,2.8.56,4.33,1.08,8.74,1.54,13.23-.47-5.43-.99-10.77-1.56-16.03h0Z"/>
      <path d="M1251.44,530.56c-.22-11.42-.81-22.33-1.63-32.58-.51,3.56-1.07,7.39-1.65,11.48-1.79,12.49-3.82,27.3-5.36,43.85-.74,8.03-1.37,16.48-1.79,25.22h9.32c.02-.28.04-.55.06-.83,1.02-16.33,1.34-32.19,1.05-47.15h0Z"/>
      <path d="M1090.79,483.35c-2.38-6.01-4.95-11.37-7.53-16.01-.42-.75-.84-1.48-1.25-2.2.42,4.67.78,10.5,1.06,17.31,3.26,5.19,6.46,11.29,9.36,18.24-.6-6.62-1.17-12.44-1.64-17.34h0Z"/>
      <path d="M1041.64,549.24c-.12.79-.24,1.57-.35,2.37-.77,5.3-1.49,10.77-2.15,16.36.36,1.76.72,3.52,1.1,5.29.36,1.76.73,3.51,1.11,5.27h6.22c-.56-2.45-1.09-4.91-1.63-7.44-1.55-7.35-3-14.64-4.29-21.85h0Z"/>
      <path d="M1083.73,521.17c1.72,9.98,3.31,21.68,4.52,34.64.3,3.23.58,6.53.84,9.91.53-7.07,1.23-13.87,2.04-20.33.36-2.84.75-5.6,1.15-8.31-1.86-10.28-4.27-19.69-7.13-28.05-.5-1.48-1.02-2.9-1.54-4.31.06,5.21.1,10.72.13,16.46h-.01Z"/>
      <path d="M1331.31,578.53v-1.1h.09c-.03-1.21-.06-2.41-.08-3.62,0-.34,0-.68-.01-1.01-.98-10.08-2.17-19.81-3.53-29.06-2.34-16.07-5.07-30.71-7.7-43.52.26,9.99.47,21,.64,32.77.22,14.22.4,29.55.71,45.56h9.88v-.02Z"/>
      <path d="M1073.42,484.54c.33-.15.81.4,1.4,1.6.01-.15.02-.31.03-.46-3.44-6.12-6.9-10.98-9.96-14.78-2.55-2.47-4.7-4.66-6.4-6.52-.98,4.93-2.42,11.27-4.11,18.79-2.05,9.14-4.49,20.13-6.94,32.59.57,4.2,1.22,8.47,1.93,12.82,1.26,7.72,2.75,15.71,4.36,23.86.12-5.28.29-10.39.47-15.3.47-12.24,1.07-23.22,1.69-32.41.64-9.19,1.28-16.58,1.92-21.73.66-5.13,1.32-8.04,2.03-8.04.37,0,.74.8,1.09,2.28.59-3.71,1.19-5.77,1.83-5.77.79,0,1.58,3.29,2.24,9.14.66,5.87,1.19,14.35,1.52,24.83.34,10.46.45,22.89.51,36.64.05,11.37.06,23.66.17,36.45h5.04c-.05-2.02-.11-4.04-.13-6.07-.02-.52-.04-1.07-.04-1.62-.18-13.17.04-25.79.4-37.57-.41-5.59-.84-10.79-1.26-15.53-.85-9.44-1.66-17.1-2.09-22.48-.43-5.35-.49-8.48.15-8.75.62-.27,1.86,2.31,3.41,7.33.23.73.46,1.53.7,2.36-.05-.62-.1-1.22-.15-1.79-.47-6.06-.53-9.58.17-9.88h.02Z"/>
      <path d="M1265.9,578.53c-.19-8.26-.46-16.17-.86-23.54-.3-4.15-.64-8.05-1-11.65.13,11.39-.14,23.18-.86,35.19h2.72Z"/>
      <path d="M1104.37,481.78c-1.85-2.82-3.66-5.26-5.33-7.33-1.13-1.09-2.17-2.13-3.12-3.09,2.08,3.96,4.1,8.29,5.98,13,.32.82.63,1.66.95,2.5.53-1.86,1.04-3.55,1.52-5.07h0Z"/>
      <path d="M965.96,578.53c-.43-8.75-1.05-17.19-1.79-25.22-1.54-16.55-3.58-31.37-5.35-43.85-.59-4.1-1.15-7.94-1.66-11.5-.82,10.26-1.4,21.17-1.61,32.6-.3,14.96.02,30.82,1.04,47.15.02.28.04.55.06.83h9.32-.01Z"/>
      <path d="M1127.18,578.53v-.91c-.04-1.95-.09-3.95-.15-5.93-.36-12.18-1.36-23.87-3.07-34.58-1.69-10.73-4.08-20.44-7-28.92-2.67-7.88-5.76-14.68-8.87-20.28-.18-.33-.37-.64-.55-.96-.39,2.84-.85,6.05-1.36,9.6,2.31,7.46,4.31,15.53,5.88,24.09,2.47,13.5,3.93,28.16,4.33,43.22.08,2.44.09,4.91.11,7.33.01,2.47,0,4.91-.04,7.33h10.72Z"/>
    </g>
    <g>
      <path d="M359.05,1026.2s500.21-2.87,835.96,336.16c0,0-510.45,236.29-835.96-326.42"/>
      <path d="M328.13,943.34l7.54,30.25s548.72-31.47,936.26,350.43c0,0,58.62-30.77,104.01-75.82,0,0-134.76-197.01-523.9-277.62"/>
      <path d="M1551.48,997.62s-58.32,134.43-124.85,200.46c0,0-74.24-65.36-187.27-127.07,0,0,116.12-70.15,312.12-73.39Z"/>
      <path d="M1559.94,967.04s-130.14-22.02-374.02,71.5c0,0-24.5-18.19-79.07-28.58,0,0,157.23-78.96,459.06-62.4l-5.97,19.48h0Z"/>
    </g>
    <g>
      <polygon points="1153.11 748.57 1221.01 748.57 1200.29 677.96 1153.11 748.57"/>
      <path d="M617.55,692.86c-13.16-6.73-32.9-10.09-59.21-10.09h-18.6l-16.5,93.57h42.12c12.08,0,22.52-1.17,31.29-3.51,8.77-2.34,16.08-5.75,21.93-10.23,5.65-4.09,10.18-9.5,13.6-16.23,3.41-6.73,5.12-14.08,5.12-22.08,0-14.23-6.58-24.71-19.74-31.43h0Z"/>
      <path d="M1085.2,900.97c-1.66-.92-4.01-1.39-7.06-1.39h-13.27l-1.9,10.78h14.1c2.23,0,4.15-.25,5.76-.74,1.6-.49,2.82-1.16,3.63-2,.82-.84,1.22-1.86,1.22-3.06,0-1.47-.83-2.67-2.49-3.59h.01Z"/>
      <polygon points="960.1 918.93 979.06 918.93 973.27 899.22 960.1 918.93"/>
      <polygon points="480.82 918.93 499.78 918.93 493.99 899.22 480.82 918.93"/>
      <path d="M1896.36,579H0l85.02,197.17L0,973.29h1896.36l-85.02-197.12,85.02-197.17ZM415.51,943.34h-58.78l10.37-59.27h22.86l-7.36,41.72h36.09l-3.18,17.55ZM278.41,680.15l-4.88,27.49h110.82l-7.31,44.45h-111.41l-4.88,27.49h150.5l-9.36,56.43h-227.49l37.43-212.29h228.08l-10.23,56.44h-151.27ZM507.02,943.34l-2.82-9.63h-33.1l-6.45,9.63h-24.57l41.63-59.27h28.25l19.35,59.27h-22.29ZM635.11,943.34h-20.08l-8.38-29.13-18.23,29.13h-20l-14.53-59.27h21.39l8.31,34,21.65-34h10.94l10.22,34.05,19.25-34.05h23.76l-34.29,59.27h-.01ZM631.73,827.37c-19.3,5.75-40.35,8.63-63.16,8.63h-137.14l37.43-212.29h107.61c30.02,0,56.33,4.09,78.95,12.28,22.61,8.19,40.11,19.64,52.49,34.36s18.57,31.53,18.57,50.44c0,15.21-3.8,30.17-11.4,44.88-7.6,14.72-18.81,27.34-33.63,37.87-13.84,10.14-30.41,18.08-49.71,23.83h0ZM757.15,943.34h-18.69l-27.47-33.15-5.84,33.15h-21.71l10.45-59.27h18.45l27.79,33.3,5.93-33.3h21.55l-10.45,59.27h0ZM902.62,907.83c-3.16-2.39-7.22-4.3-12.2-5.71s-9.65-2.12-14-2.12c-3.1,0-6.11.35-9.02,1.06-2.91.71-5.43,1.69-7.55,2.94-2.01,1.36-3.58,2.93-4.69,4.69-1.12,1.77-1.67,3.66-1.67,5.67,0,2.67.95,5.01,2.86,7.02,1.9,2.01,4.45,3.54,7.63,4.57,3.18,1.04,6.57,1.55,10.16,1.55,4.57,0,9.12-.6,13.63-1.8,4.52-1.2,8.87-3.07,13.06-5.63l-6.53,20c-3.21,1.58-6.76,2.72-10.65,3.43-3.89.71-8.53,1.06-13.92,1.06-7.78,0-14.79-1.25-21.02-3.75-6.23-2.5-11.13-6-14.69-10.49-3.57-4.49-5.35-9.56-5.35-15.23,0-4.41,1.21-8.64,3.63-12.69,2.42-4.05,5.76-7.5,10-10.33,4.3-2.94,9.37-5.21,15.22-6.82,5.85-1.6,12.09-2.41,18.74-2.41,5.12,0,10.35.59,15.71,1.75,5.36,1.17,9.32,2.71,11.88,4.61l-1.22,18.61v.02ZM986.3,943.34l-2.82-9.63h-33.1l-6.45,9.63h-24.57l41.63-59.27h28.25l19.35,59.27h-22.29ZM1106.8,943.34h-27.27l-17.29-19.76h-1.6l-3.48,19.76h-22.69l10.45-59.27h35.18c8,0,14.3.89,18.9,2.65,4.6,1.77,7.81,4.01,9.63,6.73s2.73,5.66,2.73,8.82c0,4.57-1.58,8.46-4.73,11.67-3.16,3.21-7.27,5.62-12.33,7.22-2.39.76-4.87,1.33-7.42,1.73l19.92,20.43v.02ZM1205.09,899.83h-42.23l-1.36,7.67h30.94l-2.04,12.41h-31.1l-1.36,7.67h42.02l-2.61,15.76h-63.51l10.45-59.27h63.68l-2.86,15.76h-.02ZM1236.84,801.49h-118.55l-23.1,34.5h-187.14l-78.05-91.37-16.11,91.37h-81.58l37.43-212.29h81.58l-13.4,75.99,95.27-75.99h114.33l-138.94,101.99,99.85,108.49,147.86-210.49h101.17l69.3,212.29h-79.83l-10.11-34.5h.02ZM1325.41,943.34h-58.78l10.37-59.27h22.86l-7.36,41.72h36.09l-3.18,17.55h0ZM1412.27,943.34h-58.78l10.37-59.27h22.86l-7.36,41.72h36.09l-3.18,17.55h0ZM1396.09,717.57h-58.19c13.64-8.38,25.63-17.3,35.97-26.75,5.82-5.32,10.61-10.76,14.39-16.3-10.36-.33-19.12-2.68-26.24-7.1-7.7-4.77-11.55-11.55-11.55-20.32,0-6.43,2.24-12.33,6.73-17.69,4.48-5.36,10.53-9.6,18.13-12.72s15.79-4.68,24.56-4.68,16.18,1.42,23.39,4.24c7.21,2.83,12.96,6.92,17.25,12.28,4.29,5.36,6.43,11.84,6.43,19.45,0,2.73-.44,5.9-1.32,9.5-.88,3.61-2.1,7.07-3.66,10.38-4.09,8.97-10.23,17.74-18.42,26.32-8.19,8.58-17.35,16.38-27.49,23.39h.02ZM1512.28,907.83c-3.16-2.39-7.22-4.3-12.2-5.71s-9.65-2.12-14-2.12c-3.1,0-6.11.35-9.02,1.06-2.91.71-5.43,1.69-7.55,2.94-2.01,1.36-3.58,2.93-4.69,4.69-1.12,1.77-1.67,3.66-1.67,5.67,0,2.67.95,5.01,2.86,7.02,1.9,2.01,4.45,3.54,7.63,4.57,3.18,1.04,6.57,1.55,10.16,1.55,4.57,0,9.12-.6,13.63-1.8,4.52-1.2,8.87-3.07,13.06-5.63l-6.53,20c-3.21,1.58-6.76,2.72-10.65,3.43-3.89.71-8.53,1.06-13.92,1.06-7.78,0-14.79-1.25-21.02-3.75s-11.13-6-14.69-10.49c-3.57-4.49-5.35-9.56-5.35-15.23,0-4.41,1.21-8.64,3.63-12.69,2.42-4.05,5.76-7.5,10-10.33,4.3-2.94,9.37-5.21,15.22-6.82,5.85-1.6,12.09-2.41,18.74-2.41,5.12,0,10.35.59,15.71,1.75,5.36,1.17,9.32,2.71,11.88,4.61l-1.22,18.61v.02ZM1686.15,707.63c-13.26-9.36-30.22-16.81-50.88-22.37-20.67-5.56-40.26-8.33-58.77-8.33-7.8,0-14.62.34-20.47,1.02-5.85.69-10.58,1.85-14.18,3.51-3.61,1.66-5.41,3.95-5.41,6.87,0,3.12,2.63,5.56,7.9,7.31,5.26,1.75,14.81,3.8,28.66,6.14,6.43,1.37,12.08,2.39,16.96,3.07,4.87.69,10.82,1.71,17.84,3.07,19.1,4.68,34.31,9.7,45.62,15.06,11.3,5.36,19.54,11.75,24.71,19.15,5.16,7.41,7.75,15.89,7.75,25.44,0,15.21-5.17,28.36-15.5,39.48-10.33,11.11-24.96,19.45-43.86,25-18.91,5.56-40.65,8.33-65.21,8.33-15.79,0-31.34-1.51-46.64-4.53-15.31-3.02-29.2-7.16-41.67-12.43-12.48-5.26-22.71-11.21-30.7-17.84l11.11-64.92c7.99,8.58,18.08,15.99,30.26,22.22,12.18,6.24,25.19,11.11,39.04,14.62,13.84,3.51,27.19,5.26,40.06,5.26,7.99,0,14.96-.53,20.91-1.61,5.94-1.07,10.67-2.73,14.18-4.97s5.26-5.02,5.26-8.33c0-3.51-2.49-6.14-7.46-7.9-4.97-1.75-13.5-3.6-25.59-5.56-5.46-1.17-10.04-2.14-13.74-2.92-3.71-.78-8.58-1.65-14.62-2.63-18.33-4.48-33.44-9.75-45.32-15.79-11.89-6.04-20.86-13.01-26.9-20.91-6.04-7.9-9.06-16.71-9.06-26.46,0-13.64,4.92-25.49,14.77-35.53,9.84-10.04,23.98-17.69,42.4-22.95s39.81-7.89,64.18-7.89c14.62,0,29.14,1.22,43.57,3.66,14.42,2.44,27.49,5.51,39.18,9.21,11.7,3.71,20.76,7.7,27.19,11.99l-5.56,63.45h-.01Z"/>
    </g>
    <g class="cls-3">
      <path d="M948.45,1523.73c-202.63,0-393.12-78.91-536.4-222.19-143.28-143.28-222.18-333.78-222.18-536.4,0-60.87,7.12-120.64,20.96-178.36,32.25-134.45,100.98-257.8,201.22-358.04C555.33,85.46,745.83,6.56,948.45,6.56s393.13,78.91,536.4,222.18c143.28,143.28,222.18,333.78,222.18,536.4s-78.91,393.13-222.18,536.4c-143.28,143.28-333.78,222.19-536.4,222.19h0ZM948.45,68.65c-384.05,0-696.49,312.44-696.49,696.49s312.44,696.49,696.49,696.49,696.49-312.44,696.49-696.49S1332.5,68.65,948.45,68.65h0Z"/>
    </g>
    <g class="cls-2">
      <path d="M945.84,21.27c202.63,0,393.12,78.91,536.4,222.19,143.28,143.28,222.18,333.78,222.18,536.4,0,60.87-7.12,120.64-20.96,178.36-32.25,134.45-100.98,257.8-201.22,358.04-143.28,143.28-333.78,222.18-536.4,222.18s-393.13-78.91-536.4-222.18c-143.28-143.28-222.18-333.78-222.18-536.4s78.91-393.13,222.18-536.4C552.72,100.18,743.22,21.27,945.84,21.27h0ZM945.84,1476.35c384.05,0,696.49-312.44,696.49-696.49S1329.89,83.37,945.84,83.37,249.35,395.81,249.35,779.86s312.44,696.49,696.49,696.49Z"/>
    </g>
  </g>
</svg>